G04 EAGLE Gerber RS-274X export*
G75*
%MOMM*%
%FSLAX34Y34*%
%LPD*%
%INpad maske unten*%
%IPPOS*%
%AMOC8*
5,1,8,0,0,1.08239X$1,22.5*%
G01*
%ADD10C,0.000000*%
%ADD11R,1.046000X1.246000*%
%ADD12R,0.900000X0.800000*%
%ADD13R,0.800000X0.900000*%
%ADD14R,0.508000X2.032000*%
%ADD15R,2.746000X4.246000*%


D10*
X16510Y0D02*
X3810Y12700D01*
X3810Y345440D01*
X35560Y377190D01*
X593090Y377190D01*
X599440Y370840D01*
X599440Y316230D01*
X648970Y266700D01*
X648970Y12700D01*
X636270Y0D02*
X16510Y0D01*
X636270Y0D02*
X648970Y12700D01*
D11*
X109830Y317500D03*
X90830Y317500D03*
D12*
G36*
X205740Y92017D02*
X212103Y98380D01*
X217760Y92723D01*
X211397Y86360D01*
X205740Y92017D01*
G37*
G36*
X193720Y79997D02*
X200083Y86360D01*
X205740Y80703D01*
X199377Y74340D01*
X193720Y79997D01*
G37*
G36*
X346017Y55880D02*
X352380Y49517D01*
X346723Y43860D01*
X340360Y50223D01*
X346017Y55880D01*
G37*
G36*
X333997Y67900D02*
X340360Y61537D01*
X334703Y55880D01*
X328340Y62243D01*
X333997Y67900D01*
G37*
G36*
X342207Y107950D02*
X348570Y101587D01*
X342913Y95930D01*
X336550Y102293D01*
X342207Y107950D01*
G37*
G36*
X330187Y119970D02*
X336550Y113607D01*
X330893Y107950D01*
X324530Y114313D01*
X330187Y119970D01*
G37*
G36*
X373957Y139700D02*
X380320Y133337D01*
X374663Y127680D01*
X368300Y134043D01*
X373957Y139700D01*
G37*
G36*
X361937Y151720D02*
X368300Y145357D01*
X362643Y139700D01*
X356280Y146063D01*
X361937Y151720D01*
G37*
G36*
X432493Y114300D02*
X426130Y120663D01*
X431787Y126320D01*
X438150Y119957D01*
X432493Y114300D01*
G37*
G36*
X444513Y102280D02*
X438150Y108643D01*
X443807Y114300D01*
X450170Y107937D01*
X444513Y102280D01*
G37*
G36*
X394970Y207587D02*
X401333Y213950D01*
X406990Y208293D01*
X400627Y201930D01*
X394970Y207587D01*
G37*
G36*
X382950Y195567D02*
X389313Y201930D01*
X394970Y196273D01*
X388607Y189910D01*
X382950Y195567D01*
G37*
G36*
X353060Y250767D02*
X359423Y257130D01*
X365080Y251473D01*
X358717Y245110D01*
X353060Y250767D01*
G37*
G36*
X341040Y238747D02*
X347403Y245110D01*
X353060Y239453D01*
X346697Y233090D01*
X341040Y238747D01*
G37*
G36*
X241877Y312420D02*
X248240Y306057D01*
X242583Y300400D01*
X236220Y306763D01*
X241877Y312420D01*
G37*
G36*
X229857Y324440D02*
X236220Y318077D01*
X230563Y312420D01*
X224200Y318783D01*
X229857Y324440D01*
G37*
G36*
X227907Y298450D02*
X234270Y292087D01*
X228613Y286430D01*
X222250Y292793D01*
X227907Y298450D01*
G37*
G36*
X215887Y310470D02*
X222250Y304107D01*
X216593Y298450D01*
X210230Y304813D01*
X215887Y310470D01*
G37*
G36*
X243263Y223520D02*
X236900Y229883D01*
X242557Y235540D01*
X248920Y229177D01*
X243263Y223520D01*
G37*
G36*
X255283Y211500D02*
X248920Y217863D01*
X254577Y223520D01*
X260940Y217157D01*
X255283Y211500D01*
G37*
G36*
X210243Y190500D02*
X203880Y196863D01*
X209537Y202520D01*
X215900Y196157D01*
X210243Y190500D01*
G37*
G36*
X222263Y178480D02*
X215900Y184843D01*
X221557Y190500D01*
X227920Y184137D01*
X222263Y178480D01*
G37*
G36*
X234950Y62807D02*
X241313Y69170D01*
X246970Y63513D01*
X240607Y57150D01*
X234950Y62807D01*
G37*
G36*
X222930Y50787D02*
X229293Y57150D01*
X234950Y51493D01*
X228587Y45130D01*
X222930Y50787D01*
G37*
X168520Y146050D03*
X151520Y146050D03*
G36*
X248920Y48837D02*
X255283Y55200D01*
X260940Y49543D01*
X254577Y43180D01*
X248920Y48837D01*
G37*
G36*
X236900Y36817D02*
X243263Y43180D01*
X248920Y37523D01*
X242557Y31160D01*
X236900Y36817D01*
G37*
G36*
X328237Y93980D02*
X334600Y87617D01*
X328943Y81960D01*
X322580Y88323D01*
X328237Y93980D01*
G37*
G36*
X316217Y106000D02*
X322580Y99637D01*
X316923Y93980D01*
X310560Y100343D01*
X316217Y106000D01*
G37*
G36*
X390467Y156210D02*
X396830Y149847D01*
X391173Y144190D01*
X384810Y150553D01*
X390467Y156210D01*
G37*
G36*
X378447Y168230D02*
X384810Y161867D01*
X379153Y156210D01*
X372790Y162573D01*
X378447Y168230D01*
G37*
G36*
X410210Y192347D02*
X416573Y198710D01*
X422230Y193053D01*
X415867Y186690D01*
X410210Y192347D01*
G37*
G36*
X398190Y180327D02*
X404553Y186690D01*
X410210Y181033D01*
X403847Y174670D01*
X398190Y180327D01*
G37*
G36*
X320040Y282517D02*
X326403Y288880D01*
X332060Y283223D01*
X325697Y276860D01*
X320040Y282517D01*
G37*
G36*
X308020Y270497D02*
X314383Y276860D01*
X320040Y271203D01*
X313677Y264840D01*
X308020Y270497D01*
G37*
G36*
X255847Y326390D02*
X262210Y320027D01*
X256553Y314370D01*
X250190Y320733D01*
X255847Y326390D01*
G37*
G36*
X243827Y338410D02*
X250190Y332047D01*
X244533Y326390D01*
X238170Y332753D01*
X243827Y338410D01*
G37*
G36*
X225737Y205740D02*
X219374Y212103D01*
X225031Y217760D01*
X231394Y211397D01*
X225737Y205740D01*
G37*
G36*
X237757Y193720D02*
X231394Y200083D01*
X237051Y205740D01*
X243414Y199377D01*
X237757Y193720D01*
G37*
G36*
X318193Y39370D02*
X311830Y45733D01*
X317487Y51390D01*
X323850Y45027D01*
X318193Y39370D01*
G37*
G36*
X330213Y27350D02*
X323850Y33713D01*
X329507Y39370D01*
X335870Y33007D01*
X330213Y27350D01*
G37*
G36*
X276258Y346619D02*
X282621Y340256D01*
X276964Y334599D01*
X270601Y340962D01*
X276258Y346619D01*
G37*
G36*
X264237Y358640D02*
X270600Y352277D01*
X264943Y346620D01*
X258580Y352983D01*
X264237Y358640D01*
G37*
G36*
X267970Y29787D02*
X274333Y36150D01*
X279990Y30493D01*
X273627Y24130D01*
X267970Y29787D01*
G37*
G36*
X255950Y17767D02*
X262313Y24130D01*
X267970Y18473D01*
X261607Y12110D01*
X255950Y17767D01*
G37*
G36*
X355600Y337243D02*
X349237Y330880D01*
X343580Y336537D01*
X349943Y342900D01*
X355600Y337243D01*
G37*
G36*
X367620Y349263D02*
X361257Y342900D01*
X355600Y348557D01*
X361963Y354920D01*
X367620Y349263D01*
G37*
X490610Y119380D03*
X507610Y119380D03*
X490610Y139700D03*
X507610Y139700D03*
X544440Y104140D03*
X527440Y104140D03*
X544440Y124460D03*
X527440Y124460D03*
X544440Y147320D03*
X527440Y147320D03*
X544440Y167640D03*
X527440Y167640D03*
D13*
X589280Y226940D03*
X589280Y209940D03*
X568960Y226940D03*
X568960Y209940D03*
D12*
X474100Y359410D03*
X491100Y359410D03*
X93100Y185420D03*
X110100Y185420D03*
D13*
X93100Y133350D03*
X110100Y133350D03*
X31360Y58420D03*
X14360Y58420D03*
X31360Y33020D03*
X14360Y33020D03*
X182000Y33020D03*
X199000Y33020D03*
X93100Y113030D03*
X110100Y113030D03*
D12*
X548640Y209940D03*
X548640Y226940D03*
D13*
X93100Y153670D03*
X110100Y153670D03*
D14*
X76200Y112522D03*
X38100Y177038D03*
X50800Y177038D03*
X63500Y177038D03*
X76200Y177038D03*
X63500Y112522D03*
X50800Y112522D03*
X38100Y112522D03*
D15*
X172720Y248920D03*
X482600Y215900D03*
M02*
