G04 EAGLE Gerber RS-274X export*
G75*
%MOMM*%
%FSLAX34Y34*%
%LPD*%
%INpad maske top*%
%IPPOS*%
%AMOC8*
5,1,8,0,0,1.08239X$1,22.5*%
G01*
%ADD10C,0.000000*%
%ADD11R,1.046000X1.246000*%
%ADD12R,0.800000X0.900000*%
%ADD13R,0.900000X0.800000*%
%ADD14R,0.800000X0.400000*%
%ADD15R,0.880000X0.480000*%
%ADD16R,0.940000X0.240000*%
%ADD17R,0.480000X0.880000*%
%ADD18R,0.240000X0.940000*%
%ADD19R,6.446000X6.446000*%
%ADD20R,0.970000X0.320000*%
%ADD21R,1.540000X0.240000*%
%ADD22R,1.090000X0.440000*%
%ADD23R,1.080000X0.880000*%


D10*
X16510Y0D02*
X3810Y12700D01*
X3810Y345440D01*
X35560Y377190D01*
X593090Y377190D01*
X599440Y370840D01*
X599440Y316230D01*
X648970Y266700D01*
X648970Y12700D01*
X636270Y0D02*
X16510Y0D01*
X636270Y0D02*
X648970Y12700D01*
D11*
X85700Y355600D03*
X66700Y355600D03*
X238150Y323850D03*
X257150Y323850D03*
X593700Y62230D03*
X574700Y62230D03*
X506120Y306070D03*
X525120Y306070D03*
D12*
X466090Y300745D03*
X466090Y317745D03*
D11*
X512470Y285750D03*
X531470Y285750D03*
X512470Y264160D03*
X531470Y264160D03*
D12*
X133350Y326000D03*
X133350Y309000D03*
X209550Y326000D03*
X209550Y309000D03*
X133350Y362830D03*
X133350Y345830D03*
X209550Y364100D03*
X209550Y347100D03*
X65160Y330200D03*
X82160Y330200D03*
X605400Y95250D03*
X588400Y95250D03*
X169790Y105410D03*
X152790Y105410D03*
X150740Y144780D03*
X133740Y144780D03*
D13*
X394970Y300600D03*
X394970Y283600D03*
X561340Y209940D03*
X561340Y226940D03*
D12*
X422030Y320040D03*
X439030Y320040D03*
X422030Y299720D03*
X439030Y299720D03*
X561730Y259080D03*
X578730Y259080D03*
D14*
X74550Y177100D03*
X74550Y169100D03*
X74550Y161100D03*
X74550Y153100D03*
X90550Y153100D03*
X90550Y161100D03*
X90550Y169100D03*
X90550Y177100D03*
X74550Y221550D03*
X74550Y213550D03*
X74550Y205550D03*
X74550Y197550D03*
X90550Y197550D03*
X90550Y205550D03*
X90550Y213550D03*
X90550Y221550D03*
X74550Y266000D03*
X74550Y258000D03*
X74550Y250000D03*
X74550Y242000D03*
X90550Y242000D03*
X90550Y250000D03*
X90550Y258000D03*
X90550Y266000D03*
X491110Y366330D03*
X491110Y358330D03*
X491110Y350330D03*
X491110Y342330D03*
X507110Y342330D03*
X507110Y350330D03*
X507110Y358330D03*
X507110Y366330D03*
D15*
G36*
X177012Y172483D02*
X170790Y166261D01*
X167396Y169655D01*
X173618Y175877D01*
X177012Y172483D01*
G37*
D16*
G36*
X180971Y168946D02*
X174326Y162301D01*
X172629Y163998D01*
X179274Y170643D01*
X180971Y168946D01*
G37*
G36*
X184506Y165411D02*
X177861Y158766D01*
X176164Y160463D01*
X182809Y167108D01*
X184506Y165411D01*
G37*
G36*
X188042Y161875D02*
X181397Y155230D01*
X179700Y156927D01*
X186345Y163572D01*
X188042Y161875D01*
G37*
G36*
X191577Y158340D02*
X184932Y151695D01*
X183235Y153392D01*
X189880Y160037D01*
X191577Y158340D01*
G37*
G36*
X195113Y154804D02*
X188468Y148159D01*
X186771Y149856D01*
X193416Y156501D01*
X195113Y154804D01*
G37*
G36*
X198648Y151269D02*
X192003Y144624D01*
X190306Y146321D01*
X196951Y152966D01*
X198648Y151269D01*
G37*
G36*
X202184Y147733D02*
X195539Y141088D01*
X193842Y142785D01*
X200487Y149430D01*
X202184Y147733D01*
G37*
G36*
X205719Y144198D02*
X199074Y137553D01*
X197377Y139250D01*
X204022Y145895D01*
X205719Y144198D01*
G37*
G36*
X209255Y140662D02*
X202610Y134017D01*
X200913Y135714D01*
X207558Y142359D01*
X209255Y140662D01*
G37*
G36*
X212791Y137127D02*
X206146Y130482D01*
X204449Y132179D01*
X211094Y138824D01*
X212791Y137127D01*
G37*
G36*
X216326Y133591D02*
X209681Y126946D01*
X207984Y128643D01*
X214629Y135288D01*
X216326Y133591D01*
G37*
G36*
X219862Y130055D02*
X213217Y123410D01*
X211520Y125107D01*
X218165Y131752D01*
X219862Y130055D01*
G37*
G36*
X223397Y126520D02*
X216752Y119875D01*
X215055Y121572D01*
X221700Y128217D01*
X223397Y126520D01*
G37*
G36*
X226933Y122984D02*
X220288Y116339D01*
X218591Y118036D01*
X225236Y124681D01*
X226933Y122984D01*
G37*
G36*
X230468Y119449D02*
X223823Y112804D01*
X222126Y114501D01*
X228771Y121146D01*
X230468Y119449D01*
G37*
G36*
X234004Y115913D02*
X227359Y109268D01*
X225662Y110965D01*
X232307Y117610D01*
X234004Y115913D01*
G37*
G36*
X237539Y112378D02*
X230894Y105733D01*
X229197Y107430D01*
X235842Y114075D01*
X237539Y112378D01*
G37*
G36*
X241075Y108842D02*
X234430Y102197D01*
X232733Y103894D01*
X239378Y110539D01*
X241075Y108842D01*
G37*
G36*
X244610Y105307D02*
X237965Y98662D01*
X236268Y100359D01*
X242913Y107004D01*
X244610Y105307D01*
G37*
G36*
X248146Y101771D02*
X241501Y95126D01*
X239804Y96823D01*
X246449Y103468D01*
X248146Y101771D01*
G37*
G36*
X251681Y98236D02*
X245036Y91591D01*
X243339Y93288D01*
X249984Y99933D01*
X251681Y98236D01*
G37*
G36*
X255217Y94700D02*
X248572Y88055D01*
X246875Y89752D01*
X253520Y96397D01*
X255217Y94700D01*
G37*
G36*
X258752Y91165D02*
X252107Y84520D01*
X250410Y86217D01*
X257055Y92862D01*
X258752Y91165D01*
G37*
G36*
X262288Y87629D02*
X255643Y80984D01*
X253946Y82681D01*
X260591Y89326D01*
X262288Y87629D01*
G37*
G36*
X265824Y84094D02*
X259179Y77449D01*
X257482Y79146D01*
X264127Y85791D01*
X265824Y84094D01*
G37*
G36*
X269359Y80558D02*
X262714Y73913D01*
X261017Y75610D01*
X267662Y82255D01*
X269359Y80558D01*
G37*
G36*
X272895Y77022D02*
X266250Y70377D01*
X264553Y72074D01*
X271198Y78719D01*
X272895Y77022D01*
G37*
G36*
X276430Y73487D02*
X269785Y66842D01*
X268088Y68539D01*
X274733Y75184D01*
X276430Y73487D01*
G37*
G36*
X279966Y69951D02*
X273321Y63306D01*
X271624Y65003D01*
X278269Y71648D01*
X279966Y69951D01*
G37*
G36*
X283501Y66416D02*
X276856Y59771D01*
X275159Y61468D01*
X281804Y68113D01*
X283501Y66416D01*
G37*
G36*
X287037Y62880D02*
X280392Y56235D01*
X278695Y57932D01*
X285340Y64577D01*
X287037Y62880D01*
G37*
G36*
X290572Y59345D02*
X283927Y52700D01*
X282230Y54397D01*
X288875Y61042D01*
X290572Y59345D01*
G37*
G36*
X294108Y55809D02*
X287463Y49164D01*
X285766Y50861D01*
X292411Y57506D01*
X294108Y55809D01*
G37*
G36*
X297643Y52274D02*
X290998Y45629D01*
X289301Y47326D01*
X295946Y53971D01*
X297643Y52274D01*
G37*
D15*
G36*
X302877Y46618D02*
X296655Y40396D01*
X293261Y43790D01*
X299483Y50012D01*
X302877Y46618D01*
G37*
D17*
G36*
X329039Y43790D02*
X325645Y40396D01*
X319423Y46618D01*
X322817Y50012D01*
X329039Y43790D01*
G37*
D18*
G36*
X332999Y47326D02*
X331302Y45629D01*
X324657Y52274D01*
X326354Y53971D01*
X332999Y47326D01*
G37*
G36*
X336534Y50861D02*
X334837Y49164D01*
X328192Y55809D01*
X329889Y57506D01*
X336534Y50861D01*
G37*
G36*
X340070Y54397D02*
X338373Y52700D01*
X331728Y59345D01*
X333425Y61042D01*
X340070Y54397D01*
G37*
G36*
X343605Y57932D02*
X341908Y56235D01*
X335263Y62880D01*
X336960Y64577D01*
X343605Y57932D01*
G37*
G36*
X347141Y61468D02*
X345444Y59771D01*
X338799Y66416D01*
X340496Y68113D01*
X347141Y61468D01*
G37*
G36*
X350676Y65003D02*
X348979Y63306D01*
X342334Y69951D01*
X344031Y71648D01*
X350676Y65003D01*
G37*
G36*
X354212Y68539D02*
X352515Y66842D01*
X345870Y73487D01*
X347567Y75184D01*
X354212Y68539D01*
G37*
G36*
X357747Y72074D02*
X356050Y70377D01*
X349405Y77022D01*
X351102Y78719D01*
X357747Y72074D01*
G37*
G36*
X361283Y75610D02*
X359586Y73913D01*
X352941Y80558D01*
X354638Y82255D01*
X361283Y75610D01*
G37*
G36*
X364818Y79146D02*
X363121Y77449D01*
X356476Y84094D01*
X358173Y85791D01*
X364818Y79146D01*
G37*
G36*
X368354Y82681D02*
X366657Y80984D01*
X360012Y87629D01*
X361709Y89326D01*
X368354Y82681D01*
G37*
G36*
X371890Y86217D02*
X370193Y84520D01*
X363548Y91165D01*
X365245Y92862D01*
X371890Y86217D01*
G37*
G36*
X375425Y89752D02*
X373728Y88055D01*
X367083Y94700D01*
X368780Y96397D01*
X375425Y89752D01*
G37*
G36*
X378961Y93288D02*
X377264Y91591D01*
X370619Y98236D01*
X372316Y99933D01*
X378961Y93288D01*
G37*
G36*
X382496Y96823D02*
X380799Y95126D01*
X374154Y101771D01*
X375851Y103468D01*
X382496Y96823D01*
G37*
G36*
X386032Y100359D02*
X384335Y98662D01*
X377690Y105307D01*
X379387Y107004D01*
X386032Y100359D01*
G37*
G36*
X389567Y103894D02*
X387870Y102197D01*
X381225Y108842D01*
X382922Y110539D01*
X389567Y103894D01*
G37*
G36*
X393103Y107430D02*
X391406Y105733D01*
X384761Y112378D01*
X386458Y114075D01*
X393103Y107430D01*
G37*
G36*
X396638Y110965D02*
X394941Y109268D01*
X388296Y115913D01*
X389993Y117610D01*
X396638Y110965D01*
G37*
G36*
X400174Y114501D02*
X398477Y112804D01*
X391832Y119449D01*
X393529Y121146D01*
X400174Y114501D01*
G37*
G36*
X403709Y118036D02*
X402012Y116339D01*
X395367Y122984D01*
X397064Y124681D01*
X403709Y118036D01*
G37*
G36*
X407245Y121572D02*
X405548Y119875D01*
X398903Y126520D01*
X400600Y128217D01*
X407245Y121572D01*
G37*
G36*
X410780Y125107D02*
X409083Y123410D01*
X402438Y130055D01*
X404135Y131752D01*
X410780Y125107D01*
G37*
G36*
X414316Y128643D02*
X412619Y126946D01*
X405974Y133591D01*
X407671Y135288D01*
X414316Y128643D01*
G37*
G36*
X417851Y132179D02*
X416154Y130482D01*
X409509Y137127D01*
X411206Y138824D01*
X417851Y132179D01*
G37*
G36*
X421387Y135714D02*
X419690Y134017D01*
X413045Y140662D01*
X414742Y142359D01*
X421387Y135714D01*
G37*
G36*
X424923Y139250D02*
X423226Y137553D01*
X416581Y144198D01*
X418278Y145895D01*
X424923Y139250D01*
G37*
G36*
X428458Y142785D02*
X426761Y141088D01*
X420116Y147733D01*
X421813Y149430D01*
X428458Y142785D01*
G37*
G36*
X431994Y146321D02*
X430297Y144624D01*
X423652Y151269D01*
X425349Y152966D01*
X431994Y146321D01*
G37*
G36*
X435529Y149856D02*
X433832Y148159D01*
X427187Y154804D01*
X428884Y156501D01*
X435529Y149856D01*
G37*
G36*
X439065Y153392D02*
X437368Y151695D01*
X430723Y158340D01*
X432420Y160037D01*
X439065Y153392D01*
G37*
G36*
X442600Y156927D02*
X440903Y155230D01*
X434258Y161875D01*
X435955Y163572D01*
X442600Y156927D01*
G37*
G36*
X446136Y160463D02*
X444439Y158766D01*
X437794Y165411D01*
X439491Y167108D01*
X446136Y160463D01*
G37*
G36*
X449671Y163998D02*
X447974Y162301D01*
X441329Y168946D01*
X443026Y170643D01*
X449671Y163998D01*
G37*
D17*
G36*
X454904Y169655D02*
X451510Y166261D01*
X445288Y172483D01*
X448682Y175877D01*
X454904Y169655D01*
G37*
D15*
G36*
X454904Y198645D02*
X448682Y192423D01*
X445288Y195817D01*
X451510Y202039D01*
X454904Y198645D01*
G37*
D16*
G36*
X449671Y204302D02*
X443026Y197657D01*
X441329Y199354D01*
X447974Y205999D01*
X449671Y204302D01*
G37*
G36*
X446136Y207837D02*
X439491Y201192D01*
X437794Y202889D01*
X444439Y209534D01*
X446136Y207837D01*
G37*
G36*
X442600Y211373D02*
X435955Y204728D01*
X434258Y206425D01*
X440903Y213070D01*
X442600Y211373D01*
G37*
G36*
X439065Y214908D02*
X432420Y208263D01*
X430723Y209960D01*
X437368Y216605D01*
X439065Y214908D01*
G37*
G36*
X435529Y218444D02*
X428884Y211799D01*
X427187Y213496D01*
X433832Y220141D01*
X435529Y218444D01*
G37*
G36*
X431994Y221979D02*
X425349Y215334D01*
X423652Y217031D01*
X430297Y223676D01*
X431994Y221979D01*
G37*
G36*
X428458Y225515D02*
X421813Y218870D01*
X420116Y220567D01*
X426761Y227212D01*
X428458Y225515D01*
G37*
G36*
X424923Y229050D02*
X418278Y222405D01*
X416581Y224102D01*
X423226Y230747D01*
X424923Y229050D01*
G37*
G36*
X421387Y232586D02*
X414742Y225941D01*
X413045Y227638D01*
X419690Y234283D01*
X421387Y232586D01*
G37*
G36*
X417851Y236121D02*
X411206Y229476D01*
X409509Y231173D01*
X416154Y237818D01*
X417851Y236121D01*
G37*
G36*
X414316Y239657D02*
X407671Y233012D01*
X405974Y234709D01*
X412619Y241354D01*
X414316Y239657D01*
G37*
G36*
X410780Y243193D02*
X404135Y236548D01*
X402438Y238245D01*
X409083Y244890D01*
X410780Y243193D01*
G37*
G36*
X407245Y246728D02*
X400600Y240083D01*
X398903Y241780D01*
X405548Y248425D01*
X407245Y246728D01*
G37*
G36*
X403709Y250264D02*
X397064Y243619D01*
X395367Y245316D01*
X402012Y251961D01*
X403709Y250264D01*
G37*
G36*
X400174Y253799D02*
X393529Y247154D01*
X391832Y248851D01*
X398477Y255496D01*
X400174Y253799D01*
G37*
G36*
X396638Y257335D02*
X389993Y250690D01*
X388296Y252387D01*
X394941Y259032D01*
X396638Y257335D01*
G37*
G36*
X393103Y260870D02*
X386458Y254225D01*
X384761Y255922D01*
X391406Y262567D01*
X393103Y260870D01*
G37*
G36*
X389567Y264406D02*
X382922Y257761D01*
X381225Y259458D01*
X387870Y266103D01*
X389567Y264406D01*
G37*
G36*
X386032Y267941D02*
X379387Y261296D01*
X377690Y262993D01*
X384335Y269638D01*
X386032Y267941D01*
G37*
G36*
X382496Y271477D02*
X375851Y264832D01*
X374154Y266529D01*
X380799Y273174D01*
X382496Y271477D01*
G37*
G36*
X378961Y275012D02*
X372316Y268367D01*
X370619Y270064D01*
X377264Y276709D01*
X378961Y275012D01*
G37*
G36*
X375425Y278548D02*
X368780Y271903D01*
X367083Y273600D01*
X373728Y280245D01*
X375425Y278548D01*
G37*
G36*
X371890Y282083D02*
X365245Y275438D01*
X363548Y277135D01*
X370193Y283780D01*
X371890Y282083D01*
G37*
G36*
X368354Y285619D02*
X361709Y278974D01*
X360012Y280671D01*
X366657Y287316D01*
X368354Y285619D01*
G37*
G36*
X364818Y289154D02*
X358173Y282509D01*
X356476Y284206D01*
X363121Y290851D01*
X364818Y289154D01*
G37*
G36*
X361283Y292690D02*
X354638Y286045D01*
X352941Y287742D01*
X359586Y294387D01*
X361283Y292690D01*
G37*
G36*
X357747Y296226D02*
X351102Y289581D01*
X349405Y291278D01*
X356050Y297923D01*
X357747Y296226D01*
G37*
G36*
X354212Y299761D02*
X347567Y293116D01*
X345870Y294813D01*
X352515Y301458D01*
X354212Y299761D01*
G37*
G36*
X350676Y303297D02*
X344031Y296652D01*
X342334Y298349D01*
X348979Y304994D01*
X350676Y303297D01*
G37*
G36*
X347141Y306832D02*
X340496Y300187D01*
X338799Y301884D01*
X345444Y308529D01*
X347141Y306832D01*
G37*
G36*
X343605Y310368D02*
X336960Y303723D01*
X335263Y305420D01*
X341908Y312065D01*
X343605Y310368D01*
G37*
G36*
X340070Y313903D02*
X333425Y307258D01*
X331728Y308955D01*
X338373Y315600D01*
X340070Y313903D01*
G37*
G36*
X336534Y317439D02*
X329889Y310794D01*
X328192Y312491D01*
X334837Y319136D01*
X336534Y317439D01*
G37*
G36*
X332999Y320974D02*
X326354Y314329D01*
X324657Y316026D01*
X331302Y322671D01*
X332999Y320974D01*
G37*
D15*
G36*
X329039Y324510D02*
X322817Y318288D01*
X319423Y321682D01*
X325645Y327904D01*
X329039Y324510D01*
G37*
D17*
G36*
X302877Y321682D02*
X299483Y318288D01*
X293261Y324510D01*
X296655Y327904D01*
X302877Y321682D01*
G37*
D18*
G36*
X297643Y316026D02*
X295946Y314329D01*
X289301Y320974D01*
X290998Y322671D01*
X297643Y316026D01*
G37*
G36*
X294108Y312491D02*
X292411Y310794D01*
X285766Y317439D01*
X287463Y319136D01*
X294108Y312491D01*
G37*
G36*
X290572Y308955D02*
X288875Y307258D01*
X282230Y313903D01*
X283927Y315600D01*
X290572Y308955D01*
G37*
G36*
X287037Y305420D02*
X285340Y303723D01*
X278695Y310368D01*
X280392Y312065D01*
X287037Y305420D01*
G37*
G36*
X283501Y301884D02*
X281804Y300187D01*
X275159Y306832D01*
X276856Y308529D01*
X283501Y301884D01*
G37*
G36*
X279966Y298349D02*
X278269Y296652D01*
X271624Y303297D01*
X273321Y304994D01*
X279966Y298349D01*
G37*
G36*
X276430Y294813D02*
X274733Y293116D01*
X268088Y299761D01*
X269785Y301458D01*
X276430Y294813D01*
G37*
G36*
X272895Y291278D02*
X271198Y289581D01*
X264553Y296226D01*
X266250Y297923D01*
X272895Y291278D01*
G37*
G36*
X269359Y287742D02*
X267662Y286045D01*
X261017Y292690D01*
X262714Y294387D01*
X269359Y287742D01*
G37*
G36*
X265824Y284206D02*
X264127Y282509D01*
X257482Y289154D01*
X259179Y290851D01*
X265824Y284206D01*
G37*
G36*
X262288Y280671D02*
X260591Y278974D01*
X253946Y285619D01*
X255643Y287316D01*
X262288Y280671D01*
G37*
G36*
X258752Y277135D02*
X257055Y275438D01*
X250410Y282083D01*
X252107Y283780D01*
X258752Y277135D01*
G37*
G36*
X255217Y273600D02*
X253520Y271903D01*
X246875Y278548D01*
X248572Y280245D01*
X255217Y273600D01*
G37*
G36*
X251681Y270064D02*
X249984Y268367D01*
X243339Y275012D01*
X245036Y276709D01*
X251681Y270064D01*
G37*
G36*
X248146Y266529D02*
X246449Y264832D01*
X239804Y271477D01*
X241501Y273174D01*
X248146Y266529D01*
G37*
G36*
X244610Y262993D02*
X242913Y261296D01*
X236268Y267941D01*
X237965Y269638D01*
X244610Y262993D01*
G37*
G36*
X241075Y259458D02*
X239378Y257761D01*
X232733Y264406D01*
X234430Y266103D01*
X241075Y259458D01*
G37*
G36*
X237539Y255922D02*
X235842Y254225D01*
X229197Y260870D01*
X230894Y262567D01*
X237539Y255922D01*
G37*
G36*
X234004Y252387D02*
X232307Y250690D01*
X225662Y257335D01*
X227359Y259032D01*
X234004Y252387D01*
G37*
G36*
X230468Y248851D02*
X228771Y247154D01*
X222126Y253799D01*
X223823Y255496D01*
X230468Y248851D01*
G37*
G36*
X226933Y245316D02*
X225236Y243619D01*
X218591Y250264D01*
X220288Y251961D01*
X226933Y245316D01*
G37*
G36*
X223397Y241780D02*
X221700Y240083D01*
X215055Y246728D01*
X216752Y248425D01*
X223397Y241780D01*
G37*
G36*
X219862Y238245D02*
X218165Y236548D01*
X211520Y243193D01*
X213217Y244890D01*
X219862Y238245D01*
G37*
G36*
X216326Y234709D02*
X214629Y233012D01*
X207984Y239657D01*
X209681Y241354D01*
X216326Y234709D01*
G37*
G36*
X212791Y231173D02*
X211094Y229476D01*
X204449Y236121D01*
X206146Y237818D01*
X212791Y231173D01*
G37*
G36*
X209255Y227638D02*
X207558Y225941D01*
X200913Y232586D01*
X202610Y234283D01*
X209255Y227638D01*
G37*
G36*
X205719Y224102D02*
X204022Y222405D01*
X197377Y229050D01*
X199074Y230747D01*
X205719Y224102D01*
G37*
G36*
X202184Y220567D02*
X200487Y218870D01*
X193842Y225515D01*
X195539Y227212D01*
X202184Y220567D01*
G37*
G36*
X198648Y217031D02*
X196951Y215334D01*
X190306Y221979D01*
X192003Y223676D01*
X198648Y217031D01*
G37*
G36*
X195113Y213496D02*
X193416Y211799D01*
X186771Y218444D01*
X188468Y220141D01*
X195113Y213496D01*
G37*
G36*
X191577Y209960D02*
X189880Y208263D01*
X183235Y214908D01*
X184932Y216605D01*
X191577Y209960D01*
G37*
G36*
X188042Y206425D02*
X186345Y204728D01*
X179700Y211373D01*
X181397Y213070D01*
X188042Y206425D01*
G37*
G36*
X184506Y202889D02*
X182809Y201192D01*
X176164Y207837D01*
X177861Y209534D01*
X184506Y202889D01*
G37*
G36*
X180971Y199354D02*
X179274Y197657D01*
X172629Y204302D01*
X174326Y205999D01*
X180971Y199354D01*
G37*
D17*
G36*
X177012Y195817D02*
X173618Y192423D01*
X167396Y198645D01*
X170790Y202039D01*
X177012Y195817D01*
G37*
D19*
G36*
X356730Y184150D02*
X311150Y138570D01*
X265570Y184150D01*
X311150Y229730D01*
X356730Y184150D01*
G37*
D15*
X476930Y168700D03*
D16*
X476930Y162200D03*
X476930Y157200D03*
X476930Y152200D03*
X476930Y147200D03*
X476930Y142200D03*
X476930Y137200D03*
X476930Y132200D03*
X476930Y127200D03*
X476930Y122200D03*
X476930Y117200D03*
D15*
X476930Y110700D03*
D17*
X490430Y97200D03*
D18*
X496930Y97200D03*
X501930Y97200D03*
X506930Y97200D03*
X511930Y97200D03*
X516930Y97200D03*
X521930Y97200D03*
X526930Y97200D03*
X531930Y97200D03*
X536930Y97200D03*
X541930Y97200D03*
D17*
X548430Y97200D03*
D15*
X561930Y110700D03*
D16*
X561930Y117200D03*
X561930Y122200D03*
X561930Y127200D03*
X561930Y132200D03*
X561930Y137200D03*
X561930Y142200D03*
X561930Y147200D03*
X561930Y152200D03*
X561930Y157200D03*
X561930Y162200D03*
D15*
X561930Y168700D03*
D17*
X548430Y182200D03*
D18*
X541930Y182200D03*
X536930Y182200D03*
X531930Y182200D03*
X526930Y182200D03*
X521930Y182200D03*
X516930Y182200D03*
X511930Y182200D03*
X506930Y182200D03*
X501930Y182200D03*
X496930Y182200D03*
D17*
X490430Y182200D03*
D20*
X465730Y284630D03*
X465730Y278130D03*
X465730Y271630D03*
X484230Y271630D03*
X484230Y278130D03*
X484230Y284630D03*
D21*
X413530Y339500D03*
X413530Y346000D03*
X413530Y352500D03*
X413530Y359000D03*
X447530Y339500D03*
X447530Y346000D03*
X447530Y352500D03*
X447530Y359000D03*
D22*
X158449Y327000D03*
X158449Y317500D03*
X158449Y308000D03*
X184451Y308000D03*
X184451Y327000D03*
X158449Y365100D03*
X158449Y355600D03*
X158449Y346100D03*
X184451Y346100D03*
X184451Y365100D03*
D12*
X256150Y344170D03*
X239150Y344170D03*
X106680Y99450D03*
X106680Y116450D03*
D13*
X127000Y116450D03*
X127000Y99450D03*
D14*
X588900Y163130D03*
X588900Y155130D03*
X588900Y147130D03*
X588900Y139130D03*
X604900Y139130D03*
X604900Y147130D03*
X604900Y155130D03*
X604900Y163130D03*
D23*
X87700Y98950D03*
X64700Y116950D03*
X64700Y98950D03*
X87700Y116950D03*
D22*
X579421Y18440D03*
X579421Y27940D03*
X579421Y37440D03*
X553419Y37440D03*
X553419Y18440D03*
D12*
X604520Y19440D03*
X604520Y36440D03*
X525780Y16900D03*
X525780Y33900D03*
D13*
X629920Y36440D03*
X629920Y19440D03*
D11*
X479400Y22860D03*
X460400Y22860D03*
D12*
X437125Y262255D03*
X420125Y262255D03*
M02*
