G04 EAGLE Gerber RS-274X export*
G75*
%MOMM*%
%FSLAX34Y34*%
%LPD*%
%INseide unten*%
%IPPOS*%
%AMOC8*
5,1,8,0,0,1.08239X$1,22.5*%
G01*
%ADD10C,0.000000*%
%ADD11C,0.127000*%
%ADD12C,0.152400*%


D10*
X16510Y0D02*
X3810Y12700D01*
X3810Y345440D01*
X35560Y377190D01*
X593090Y377190D01*
X599440Y370840D01*
X599440Y316230D01*
X648970Y266700D01*
X648970Y12700D01*
X636270Y0D02*
X16510Y0D01*
X636270Y0D02*
X648970Y12700D01*
D11*
X137795Y108585D02*
X137795Y115449D01*
X134363Y115449D01*
X133219Y114305D01*
X133219Y112017D01*
X134363Y110873D01*
X137795Y110873D01*
X135507Y110873D02*
X133219Y108585D01*
X130311Y115449D02*
X125735Y115449D01*
X130311Y115449D02*
X130311Y112017D01*
X128023Y113161D01*
X126879Y113161D01*
X125735Y112017D01*
X125735Y109729D01*
X126879Y108585D01*
X129167Y108585D01*
X130311Y109729D01*
X122827Y113161D02*
X120539Y115449D01*
X120539Y108585D01*
X122827Y108585D02*
X118251Y108585D01*
X109089Y334015D02*
X110233Y335159D01*
X112521Y335159D01*
X113665Y334015D01*
X113665Y329439D01*
X112521Y328295D01*
X110233Y328295D01*
X109089Y329439D01*
X106181Y332871D02*
X103893Y335159D01*
X103893Y328295D01*
X106181Y328295D02*
X101605Y328295D01*
X98697Y329439D02*
X98697Y334015D01*
X97553Y335159D01*
X95265Y335159D01*
X94121Y334015D01*
X94121Y329439D01*
X95265Y328295D01*
X97553Y328295D01*
X98697Y329439D01*
X94121Y334015D01*
X91213Y332871D02*
X88925Y335159D01*
X88925Y328295D01*
X91213Y328295D02*
X86637Y328295D01*
D12*
X28455Y158242D02*
X21253Y158242D01*
X19812Y159683D01*
X19812Y162564D01*
X21253Y164004D01*
X28455Y164004D01*
X28455Y167597D02*
X28455Y173359D01*
X28455Y167597D02*
X24134Y167597D01*
X25574Y170478D01*
X25574Y171919D01*
X24134Y173359D01*
X21253Y173359D01*
X19812Y171919D01*
X19812Y169038D01*
X21253Y167597D01*
D11*
X137795Y137039D02*
X137795Y130175D01*
X137795Y137039D02*
X134363Y137039D01*
X133219Y135895D01*
X133219Y133607D01*
X134363Y132463D01*
X137795Y132463D01*
X135507Y132463D02*
X133219Y130175D01*
X130311Y137039D02*
X125735Y137039D01*
X130311Y137039D02*
X130311Y133607D01*
X128023Y134751D01*
X126879Y134751D01*
X125735Y133607D01*
X125735Y131319D01*
X126879Y130175D01*
X129167Y130175D01*
X130311Y131319D01*
X122827Y130175D02*
X118251Y130175D01*
X122827Y130175D02*
X118251Y134751D01*
X118251Y135895D01*
X119395Y137039D01*
X121683Y137039D01*
X122827Y135895D01*
X137795Y150495D02*
X137795Y157359D01*
X134363Y157359D01*
X133219Y156215D01*
X133219Y153927D01*
X134363Y152783D01*
X137795Y152783D01*
X135507Y152783D02*
X133219Y150495D01*
X130311Y157359D02*
X125735Y157359D01*
X130311Y157359D02*
X130311Y153927D01*
X128023Y155071D01*
X126879Y155071D01*
X125735Y153927D01*
X125735Y151639D01*
X126879Y150495D01*
X129167Y150495D01*
X130311Y151639D01*
X122827Y156215D02*
X121683Y157359D01*
X119395Y157359D01*
X118251Y156215D01*
X118251Y155071D01*
X119395Y153927D01*
X120539Y153927D01*
X119395Y153927D02*
X118251Y152783D01*
X118251Y151639D01*
X119395Y150495D01*
X121683Y150495D01*
X122827Y151639D01*
X107819Y200665D02*
X108963Y201809D01*
X111251Y201809D01*
X112395Y200665D01*
X112395Y196089D01*
X111251Y194945D01*
X108963Y194945D01*
X107819Y196089D01*
X104911Y201809D02*
X100335Y201809D01*
X104911Y201809D02*
X104911Y198377D01*
X102623Y199521D01*
X101479Y199521D01*
X100335Y198377D01*
X100335Y196089D01*
X101479Y194945D01*
X103767Y194945D01*
X104911Y196089D01*
X97427Y196089D02*
X97427Y200665D01*
X96283Y201809D01*
X93995Y201809D01*
X92851Y200665D01*
X92851Y196089D01*
X93995Y194945D01*
X96283Y194945D01*
X97427Y196089D01*
X92851Y200665D01*
X89943Y199521D02*
X87655Y201809D01*
X87655Y194945D01*
X89943Y194945D02*
X85367Y194945D01*
X32385Y73539D02*
X32385Y66675D01*
X32385Y73539D02*
X28953Y73539D01*
X27809Y72395D01*
X27809Y70107D01*
X28953Y68963D01*
X32385Y68963D01*
X30097Y68963D02*
X27809Y66675D01*
X24901Y71251D02*
X22613Y73539D01*
X22613Y66675D01*
X24901Y66675D02*
X20325Y66675D01*
X17417Y71251D02*
X15129Y73539D01*
X15129Y66675D01*
X17417Y66675D02*
X12841Y66675D01*
X32385Y48139D02*
X32385Y41275D01*
X32385Y48139D02*
X28953Y48139D01*
X27809Y46995D01*
X27809Y44707D01*
X28953Y43563D01*
X32385Y43563D01*
X30097Y43563D02*
X27809Y41275D01*
X24901Y45851D02*
X22613Y48139D01*
X22613Y41275D01*
X24901Y41275D02*
X20325Y41275D01*
X17417Y41275D02*
X12841Y41275D01*
X17417Y41275D02*
X12841Y45851D01*
X12841Y46995D01*
X13985Y48139D01*
X16273Y48139D01*
X17417Y46995D01*
X200025Y48139D02*
X200025Y41275D01*
X200025Y48139D02*
X196593Y48139D01*
X195449Y46995D01*
X195449Y44707D01*
X196593Y43563D01*
X200025Y43563D01*
X197737Y43563D02*
X195449Y41275D01*
X192541Y45851D02*
X190253Y48139D01*
X190253Y41275D01*
X192541Y41275D02*
X187965Y41275D01*
X185057Y46995D02*
X183913Y48139D01*
X181625Y48139D01*
X180481Y46995D01*
X180481Y45851D01*
X181625Y44707D01*
X182769Y44707D01*
X181625Y44707D02*
X180481Y43563D01*
X180481Y42419D01*
X181625Y41275D01*
X183913Y41275D01*
X185057Y42419D01*
X168779Y160025D02*
X169923Y161169D01*
X172211Y161169D01*
X173355Y160025D01*
X173355Y155449D01*
X172211Y154305D01*
X169923Y154305D01*
X168779Y155449D01*
X165871Y158881D02*
X163583Y161169D01*
X163583Y154305D01*
X165871Y154305D02*
X161295Y154305D01*
X158387Y154305D02*
X153811Y154305D01*
X158387Y154305D02*
X153811Y158881D01*
X153811Y160025D01*
X154955Y161169D01*
X157243Y161169D01*
X158387Y160025D01*
X150903Y154305D02*
X146327Y154305D01*
X150903Y154305D02*
X146327Y158881D01*
X146327Y160025D01*
X147471Y161169D01*
X149759Y161169D01*
X150903Y160025D01*
X591825Y240161D02*
X592969Y239017D01*
X592969Y236729D01*
X591825Y235585D01*
X587249Y235585D01*
X586105Y236729D01*
X586105Y239017D01*
X587249Y240161D01*
X586105Y243069D02*
X586105Y247645D01*
X586105Y243069D02*
X590681Y247645D01*
X591825Y247645D01*
X592969Y246501D01*
X592969Y244213D01*
X591825Y243069D01*
X590681Y250553D02*
X592969Y252841D01*
X586105Y252841D01*
X586105Y250553D02*
X586105Y255129D01*
X571505Y240161D02*
X572649Y239017D01*
X572649Y236729D01*
X571505Y235585D01*
X566929Y235585D01*
X565785Y236729D01*
X565785Y239017D01*
X566929Y240161D01*
X565785Y243069D02*
X565785Y247645D01*
X565785Y243069D02*
X570361Y247645D01*
X571505Y247645D01*
X572649Y246501D01*
X572649Y244213D01*
X571505Y243069D01*
X565785Y250553D02*
X565785Y255129D01*
X565785Y250553D02*
X570361Y255129D01*
X571505Y255129D01*
X572649Y253985D01*
X572649Y251697D01*
X571505Y250553D01*
X551059Y235585D02*
X544195Y235585D01*
X551059Y235585D02*
X551059Y239017D01*
X549915Y240161D01*
X547627Y240161D01*
X546483Y239017D01*
X546483Y235585D01*
X546483Y237873D02*
X544195Y240161D01*
X544195Y243069D02*
X544195Y247645D01*
X544195Y243069D02*
X548771Y247645D01*
X549915Y247645D01*
X551059Y246501D01*
X551059Y244213D01*
X549915Y243069D01*
X544195Y250553D02*
X544195Y255129D01*
X544195Y250553D02*
X548771Y255129D01*
X549915Y255129D01*
X551059Y253985D01*
X551059Y251697D01*
X549915Y250553D01*
X478533Y133229D02*
X477389Y132085D01*
X478533Y133229D02*
X480821Y133229D01*
X481965Y132085D01*
X481965Y127509D01*
X480821Y126365D01*
X478533Y126365D01*
X477389Y127509D01*
X474481Y126365D02*
X469905Y126365D01*
X474481Y126365D02*
X469905Y130941D01*
X469905Y132085D01*
X471049Y133229D01*
X473337Y133229D01*
X474481Y132085D01*
X466997Y132085D02*
X466997Y127509D01*
X466997Y132085D02*
X465853Y133229D01*
X463565Y133229D01*
X462421Y132085D01*
X462421Y127509D01*
X463565Y126365D01*
X465853Y126365D01*
X466997Y127509D01*
X462421Y132085D01*
X459513Y130941D02*
X457225Y133229D01*
X457225Y126365D01*
X459513Y126365D02*
X454937Y126365D01*
X478659Y152405D02*
X479803Y153549D01*
X482091Y153549D01*
X483235Y152405D01*
X483235Y147829D01*
X482091Y146685D01*
X479803Y146685D01*
X478659Y147829D01*
X475751Y146685D02*
X471175Y146685D01*
X475751Y146685D02*
X471175Y151261D01*
X471175Y152405D01*
X472319Y153549D01*
X474607Y153549D01*
X475751Y152405D01*
X468267Y152405D02*
X468267Y147829D01*
X468267Y152405D02*
X467123Y153549D01*
X464835Y153549D01*
X463691Y152405D01*
X463691Y147829D01*
X464835Y146685D01*
X467123Y146685D01*
X468267Y147829D01*
X463691Y152405D01*
X460783Y146685D02*
X456207Y146685D01*
X460783Y146685D02*
X456207Y151261D01*
X456207Y152405D01*
X457351Y153549D01*
X459639Y153549D01*
X460783Y152405D01*
X575179Y125735D02*
X576323Y126879D01*
X578611Y126879D01*
X579755Y125735D01*
X579755Y121159D01*
X578611Y120015D01*
X576323Y120015D01*
X575179Y121159D01*
X572271Y120015D02*
X567695Y120015D01*
X572271Y120015D02*
X567695Y124591D01*
X567695Y125735D01*
X568839Y126879D01*
X571127Y126879D01*
X572271Y125735D01*
X564787Y125735D02*
X564787Y121159D01*
X564787Y125735D02*
X563643Y126879D01*
X561355Y126879D01*
X560211Y125735D01*
X560211Y121159D01*
X561355Y120015D01*
X563643Y120015D01*
X564787Y121159D01*
X560211Y125735D01*
X553871Y126879D02*
X553871Y120015D01*
X557303Y123447D02*
X553871Y126879D01*
X552727Y123447D02*
X557303Y123447D01*
X575179Y105415D02*
X576323Y106559D01*
X578611Y106559D01*
X579755Y105415D01*
X579755Y100839D01*
X578611Y99695D01*
X576323Y99695D01*
X575179Y100839D01*
X572271Y99695D02*
X567695Y99695D01*
X572271Y99695D02*
X567695Y104271D01*
X567695Y105415D01*
X568839Y106559D01*
X571127Y106559D01*
X572271Y105415D01*
X564787Y105415D02*
X564787Y100839D01*
X564787Y105415D02*
X563643Y106559D01*
X561355Y106559D01*
X560211Y105415D01*
X560211Y100839D01*
X561355Y99695D01*
X563643Y99695D01*
X564787Y100839D01*
X560211Y105415D01*
X557303Y105415D02*
X556159Y106559D01*
X553871Y106559D01*
X552727Y105415D01*
X552727Y104271D01*
X553871Y103127D01*
X555015Y103127D01*
X553871Y103127D02*
X552727Y101983D01*
X552727Y100839D01*
X553871Y99695D01*
X556159Y99695D01*
X557303Y100839D01*
X575179Y148595D02*
X576323Y149739D01*
X578611Y149739D01*
X579755Y148595D01*
X579755Y144019D01*
X578611Y142875D01*
X576323Y142875D01*
X575179Y144019D01*
X572271Y142875D02*
X567695Y142875D01*
X572271Y142875D02*
X567695Y147451D01*
X567695Y148595D01*
X568839Y149739D01*
X571127Y149739D01*
X572271Y148595D01*
X564787Y148595D02*
X564787Y144019D01*
X564787Y148595D02*
X563643Y149739D01*
X561355Y149739D01*
X560211Y148595D01*
X560211Y144019D01*
X561355Y142875D01*
X563643Y142875D01*
X564787Y144019D01*
X560211Y148595D01*
X557303Y149739D02*
X552727Y149739D01*
X557303Y149739D02*
X557303Y146307D01*
X555015Y147451D01*
X553871Y147451D01*
X552727Y146307D01*
X552727Y144019D01*
X553871Y142875D01*
X556159Y142875D01*
X557303Y144019D01*
X575179Y168915D02*
X576323Y170059D01*
X578611Y170059D01*
X579755Y168915D01*
X579755Y164339D01*
X578611Y163195D01*
X576323Y163195D01*
X575179Y164339D01*
X572271Y163195D02*
X567695Y163195D01*
X572271Y163195D02*
X567695Y167771D01*
X567695Y168915D01*
X568839Y170059D01*
X571127Y170059D01*
X572271Y168915D01*
X564787Y168915D02*
X564787Y164339D01*
X564787Y168915D02*
X563643Y170059D01*
X561355Y170059D01*
X560211Y168915D01*
X560211Y164339D01*
X561355Y163195D01*
X563643Y163195D01*
X564787Y164339D01*
X560211Y168915D01*
X555015Y168915D02*
X552727Y170059D01*
X555015Y168915D02*
X557303Y166627D01*
X557303Y164339D01*
X556159Y163195D01*
X553871Y163195D01*
X552727Y164339D01*
X552727Y165483D01*
X553871Y166627D01*
X557303Y166627D01*
X491359Y349255D02*
X492503Y350399D01*
X494791Y350399D01*
X495935Y349255D01*
X495935Y344679D01*
X494791Y343535D01*
X492503Y343535D01*
X491359Y344679D01*
X485019Y343535D02*
X485019Y350399D01*
X488451Y346967D01*
X483875Y346967D01*
X480967Y344679D02*
X480967Y349255D01*
X479823Y350399D01*
X477535Y350399D01*
X476391Y349255D01*
X476391Y344679D01*
X477535Y343535D01*
X479823Y343535D01*
X480967Y344679D01*
X476391Y349255D01*
X473483Y348111D02*
X471195Y350399D01*
X471195Y343535D01*
X473483Y343535D02*
X468907Y343535D01*
X289447Y349808D02*
X287829Y349808D01*
X289447Y349808D02*
X291065Y348190D01*
X291065Y346573D01*
X287829Y343337D01*
X286211Y343337D01*
X284593Y344955D01*
X284593Y346573D01*
X284964Y351056D02*
X284964Y354291D01*
X280110Y349438D01*
X281728Y347820D02*
X278492Y351056D01*
X280480Y357157D02*
X280480Y358775D01*
X278863Y360392D01*
X277245Y360392D01*
X276436Y359583D01*
X276436Y357966D01*
X277245Y357157D01*
X276436Y357966D02*
X274818Y357966D01*
X274009Y357157D01*
X274009Y355539D01*
X275627Y353921D01*
X277245Y353921D01*
X271144Y358404D02*
X267908Y361640D01*
X271144Y358404D02*
X271144Y364876D01*
X271953Y365684D01*
X273571Y365684D01*
X275188Y364067D01*
X275188Y362449D01*
X269127Y329488D02*
X267509Y329488D01*
X269127Y329488D02*
X270745Y327870D01*
X270745Y326253D01*
X267509Y323017D01*
X265891Y323017D01*
X264273Y324635D01*
X264273Y326253D01*
X264644Y330736D02*
X264644Y333971D01*
X259790Y329118D01*
X261408Y327500D02*
X258172Y330736D01*
X256116Y332792D02*
X252880Y336028D01*
X256116Y339263D02*
X256116Y332792D01*
X256116Y339263D02*
X256925Y340072D01*
X258543Y340072D01*
X260160Y338455D01*
X260160Y336837D01*
X254868Y342129D02*
X254868Y343747D01*
X253251Y345364D01*
X251633Y345364D01*
X250824Y344556D01*
X250824Y342938D01*
X249206Y342938D01*
X248397Y342129D01*
X248397Y340511D01*
X250015Y338893D01*
X251633Y338893D01*
X252442Y339702D01*
X252442Y341320D01*
X254059Y341320D01*
X254868Y342129D01*
X252442Y341320D02*
X250824Y342938D01*
X223407Y329488D02*
X221789Y329488D01*
X223407Y329488D02*
X225025Y327870D01*
X225025Y326253D01*
X221789Y323017D01*
X220171Y323017D01*
X218553Y324635D01*
X218553Y326253D01*
X218924Y330736D02*
X218924Y333971D01*
X214070Y329118D01*
X215688Y327500D02*
X212452Y330736D01*
X213632Y336028D02*
X213632Y339263D01*
X208778Y334410D01*
X210396Y332792D02*
X207160Y336028D01*
X205913Y338893D02*
X209148Y342129D01*
X209148Y343747D01*
X207531Y345364D01*
X205913Y345364D01*
X202677Y342129D01*
X202677Y340511D01*
X204295Y338893D01*
X205913Y338893D01*
X205913Y345364D01*
X207819Y315518D02*
X209437Y315518D01*
X211055Y313900D01*
X211055Y312283D01*
X207819Y309047D01*
X206201Y309047D01*
X204583Y310665D01*
X204583Y312283D01*
X204954Y316766D02*
X204954Y320001D01*
X200100Y315148D01*
X201718Y313530D02*
X198482Y316766D01*
X199662Y322058D02*
X199662Y325293D01*
X194808Y320440D01*
X196426Y318822D02*
X193190Y322058D01*
X194369Y327350D02*
X194369Y330586D01*
X189516Y325732D01*
X191134Y324114D02*
X187898Y327350D01*
X265985Y227634D02*
X267603Y227634D01*
X269221Y226016D01*
X269221Y224399D01*
X265985Y221163D01*
X264367Y221163D01*
X262749Y222781D01*
X262749Y224399D01*
X263120Y228882D02*
X263120Y232117D01*
X258266Y227264D01*
X259884Y225646D02*
X256648Y228882D01*
X257828Y234174D02*
X257828Y237409D01*
X252974Y232556D01*
X254592Y230938D02*
X251356Y234174D01*
X249300Y236230D02*
X246064Y239466D01*
X249300Y236230D02*
X249300Y242702D01*
X250109Y243510D01*
X251727Y243510D01*
X253344Y241893D01*
X253344Y240275D01*
X249315Y209346D02*
X247697Y209346D01*
X249315Y209346D02*
X250933Y207728D01*
X250933Y206111D01*
X247697Y202875D01*
X246079Y202875D01*
X244461Y204493D01*
X244461Y206111D01*
X244832Y210594D02*
X244832Y213829D01*
X239978Y208976D01*
X241596Y207358D02*
X238360Y210594D01*
X236304Y212650D02*
X233068Y215886D01*
X236304Y219121D02*
X236304Y212650D01*
X236304Y219121D02*
X237113Y219930D01*
X238731Y219930D01*
X240348Y218313D01*
X240348Y216695D01*
X231821Y218751D02*
X230203Y218751D01*
X228585Y220369D01*
X228585Y221987D01*
X231821Y225222D01*
X233439Y225222D01*
X235056Y223605D01*
X235056Y221987D01*
X234247Y221178D01*
X232630Y221178D01*
X230203Y223605D01*
X217057Y177088D02*
X215439Y177088D01*
X217057Y177088D02*
X218675Y175470D01*
X218675Y173853D01*
X215439Y170617D01*
X213821Y170617D01*
X212203Y172235D01*
X212203Y173853D01*
X212574Y178336D02*
X212574Y181571D01*
X207720Y176718D01*
X209338Y175100D02*
X206102Y178336D01*
X207282Y183628D02*
X207282Y186863D01*
X202428Y182010D01*
X204046Y180392D02*
X200810Y183628D01*
X202798Y189729D02*
X202798Y191347D01*
X201181Y192964D01*
X199563Y192964D01*
X198754Y192156D01*
X198754Y190538D01*
X199563Y189729D01*
X198754Y190538D02*
X197136Y190538D01*
X196327Y189729D01*
X196327Y188111D01*
X197945Y186493D01*
X199563Y186493D01*
X201372Y104027D02*
X201372Y102409D01*
X201372Y104027D02*
X202990Y105645D01*
X204607Y105645D01*
X207843Y102409D01*
X207843Y100791D01*
X206225Y99173D01*
X204607Y99173D01*
X200124Y99543D02*
X196889Y99543D01*
X201742Y94690D01*
X203360Y96308D02*
X200124Y93072D01*
X197259Y91825D02*
X194023Y95060D01*
X192405Y95060D01*
X190788Y93442D01*
X190788Y91825D01*
X194023Y88589D01*
X195641Y88589D01*
X197259Y90207D01*
X197259Y91825D01*
X190788Y91825D01*
X192776Y85724D02*
X189540Y82488D01*
X192776Y85724D02*
X186304Y85724D01*
X185496Y86533D01*
X185496Y88150D01*
X187113Y89768D01*
X188731Y89768D01*
X230582Y74817D02*
X230582Y73199D01*
X230582Y74817D02*
X232200Y76435D01*
X233817Y76435D01*
X237053Y73199D01*
X237053Y71581D01*
X235435Y69963D01*
X233817Y69963D01*
X229334Y70333D02*
X226099Y70333D01*
X230952Y65480D01*
X232570Y67098D02*
X229334Y63862D01*
X226469Y62615D02*
X223233Y65850D01*
X221615Y65850D01*
X219998Y64232D01*
X219998Y62615D01*
X223233Y59379D01*
X224851Y59379D01*
X226469Y60997D01*
X226469Y62615D01*
X219998Y62615D01*
X217941Y60558D02*
X216323Y60558D01*
X214706Y58940D01*
X214706Y57323D01*
X215514Y56514D01*
X217132Y56514D01*
X217941Y57323D01*
X217132Y56514D02*
X217132Y54896D01*
X217941Y54087D01*
X219559Y54087D01*
X221177Y55705D01*
X221177Y57323D01*
X262332Y43067D02*
X262332Y41449D01*
X262332Y43067D02*
X263950Y44685D01*
X265567Y44685D01*
X268803Y41449D01*
X268803Y39831D01*
X267185Y38213D01*
X265567Y38213D01*
X261084Y38583D02*
X257849Y38583D01*
X262702Y33730D01*
X264320Y35348D02*
X261084Y32112D01*
X259028Y30056D02*
X255792Y26820D01*
X252557Y30056D02*
X259028Y30056D01*
X252557Y30056D02*
X251748Y30865D01*
X251748Y32482D01*
X253365Y34100D01*
X254983Y34100D01*
X249691Y28808D02*
X248073Y28808D01*
X246456Y27190D01*
X246456Y25573D01*
X247264Y24764D01*
X248882Y24764D01*
X249691Y25573D01*
X248882Y24764D02*
X248882Y23146D01*
X249691Y22337D01*
X251309Y22337D01*
X252927Y23955D01*
X252927Y25573D01*
X281382Y25287D02*
X281382Y23669D01*
X281382Y25287D02*
X283000Y26905D01*
X284617Y26905D01*
X287853Y23669D01*
X287853Y22051D01*
X286235Y20433D01*
X284617Y20433D01*
X280134Y20803D02*
X276899Y20803D01*
X281752Y15950D01*
X283370Y17568D02*
X280134Y14332D01*
X275651Y9849D02*
X270798Y14702D01*
X275651Y14702D01*
X272415Y11467D01*
X269550Y10219D02*
X266314Y10219D01*
X271168Y5366D01*
X272786Y6984D02*
X269550Y3748D01*
X356409Y60248D02*
X358027Y60248D01*
X359645Y58630D01*
X359645Y57013D01*
X356409Y53777D01*
X354791Y53777D01*
X353173Y55395D01*
X353173Y57013D01*
X353544Y61496D02*
X353544Y64731D01*
X348690Y59878D01*
X350308Y58260D02*
X347072Y61496D01*
X345825Y64361D02*
X349060Y67597D01*
X349060Y69215D01*
X347443Y70832D01*
X345825Y70832D01*
X342589Y67597D01*
X342589Y65979D01*
X344207Y64361D01*
X345825Y64361D01*
X345825Y70832D01*
X342151Y76124D02*
X337297Y71271D01*
X342151Y71271D02*
X342151Y76124D01*
X338915Y74507D02*
X342151Y71271D01*
X322467Y80568D02*
X320849Y80568D01*
X322467Y80568D02*
X324085Y78950D01*
X324085Y77333D01*
X320849Y74097D01*
X319231Y74097D01*
X317613Y75715D01*
X317613Y77333D01*
X317984Y81816D02*
X317984Y85051D01*
X313130Y80198D01*
X314748Y78580D02*
X311512Y81816D01*
X309456Y83872D02*
X306220Y87108D01*
X309456Y90343D02*
X309456Y83872D01*
X309456Y90343D02*
X310265Y91152D01*
X311883Y91152D01*
X313500Y89535D01*
X313500Y87917D01*
X306591Y96444D02*
X301737Y91591D01*
X306591Y91591D02*
X306591Y96444D01*
X303355Y94827D02*
X306591Y91591D01*
X355139Y111048D02*
X356757Y111048D01*
X358375Y109430D01*
X358375Y107813D01*
X355139Y104577D01*
X353521Y104577D01*
X351903Y106195D01*
X351903Y107813D01*
X352274Y112296D02*
X352274Y115531D01*
X347420Y110678D01*
X349038Y109060D02*
X345802Y112296D01*
X344555Y115161D02*
X347790Y118397D01*
X347790Y120015D01*
X346173Y121632D01*
X344555Y121632D01*
X341319Y118397D01*
X341319Y116779D01*
X342937Y115161D01*
X344555Y115161D01*
X344555Y121632D01*
X343307Y124498D02*
X340072Y127733D01*
X343307Y124498D02*
X340881Y122071D01*
X340072Y124498D01*
X339263Y125307D01*
X337645Y125307D01*
X336027Y123689D01*
X336027Y122071D01*
X337645Y120453D01*
X339263Y120453D01*
X400859Y160578D02*
X402477Y160578D01*
X404095Y158960D01*
X404095Y157343D01*
X400859Y154107D01*
X399241Y154107D01*
X397623Y155725D01*
X397623Y157343D01*
X397994Y161826D02*
X397994Y165061D01*
X393140Y160208D01*
X394758Y158590D02*
X391522Y161826D01*
X389466Y163882D02*
X386230Y167118D01*
X389466Y170353D02*
X389466Y163882D01*
X389466Y170353D02*
X390275Y171162D01*
X391893Y171162D01*
X393510Y169545D01*
X393510Y167927D01*
X389027Y174028D02*
X385792Y177263D01*
X389027Y174028D02*
X386601Y171601D01*
X385792Y174028D01*
X384983Y174837D01*
X383365Y174837D01*
X381747Y173219D01*
X381747Y171601D01*
X383365Y169983D01*
X384983Y169983D01*
X424892Y234489D02*
X424892Y236107D01*
X426510Y237725D01*
X428127Y237725D01*
X431363Y234489D01*
X431363Y232871D01*
X429745Y231253D01*
X428127Y231253D01*
X423644Y231623D02*
X420409Y231623D01*
X425262Y226770D01*
X426880Y228388D02*
X423644Y225152D01*
X420779Y223905D02*
X417543Y227140D01*
X415925Y227140D01*
X414308Y225522D01*
X414308Y223905D01*
X417543Y220669D01*
X419161Y220669D01*
X420779Y222287D01*
X420779Y223905D01*
X414308Y223905D01*
X412251Y221848D02*
X410633Y221848D01*
X409016Y220230D01*
X409016Y218613D01*
X409824Y217804D01*
X411442Y217804D01*
X411442Y216186D01*
X412251Y215377D01*
X413869Y215377D01*
X415487Y216995D01*
X415487Y218613D01*
X414678Y219421D01*
X413060Y219421D01*
X413060Y221039D01*
X412251Y221848D01*
X413060Y219421D02*
X411442Y217804D01*
X348692Y261159D02*
X348692Y262777D01*
X350310Y264395D01*
X351927Y264395D01*
X355163Y261159D01*
X355163Y259541D01*
X353545Y257923D01*
X351927Y257923D01*
X347444Y258293D02*
X344209Y258293D01*
X349062Y253440D01*
X350680Y255058D02*
X347444Y251822D01*
X344579Y250575D02*
X341343Y253810D01*
X339725Y253810D01*
X338108Y252192D01*
X338108Y250575D01*
X341343Y247339D01*
X342961Y247339D01*
X344579Y248957D01*
X344579Y250575D01*
X338108Y250575D01*
X339287Y245283D02*
X339287Y243665D01*
X337669Y242047D01*
X336051Y242047D01*
X332816Y245283D01*
X332816Y246900D01*
X334433Y248518D01*
X336051Y248518D01*
X336860Y247709D01*
X336860Y246091D01*
X334433Y243665D01*
X315672Y292909D02*
X315672Y294527D01*
X317290Y296145D01*
X318907Y296145D01*
X322143Y292909D01*
X322143Y291291D01*
X320525Y289673D01*
X318907Y289673D01*
X314424Y290043D02*
X311189Y290043D01*
X316042Y285190D01*
X317660Y286808D02*
X314424Y283572D01*
X312368Y281516D02*
X309132Y278280D01*
X305897Y281516D02*
X312368Y281516D01*
X305897Y281516D02*
X305088Y282325D01*
X305088Y283942D01*
X306705Y285560D01*
X308323Y285560D01*
X302222Y281077D02*
X298987Y277841D01*
X299796Y277033D01*
X306267Y277033D01*
X307076Y276224D01*
X351232Y358949D02*
X351232Y360567D01*
X352850Y362185D01*
X354467Y362185D01*
X357703Y358949D01*
X357703Y357331D01*
X356085Y355713D01*
X354467Y355713D01*
X349984Y356083D02*
X346749Y356083D01*
X351602Y351230D01*
X353220Y352848D02*
X349984Y349612D01*
X345501Y345129D02*
X340648Y349982D01*
X345501Y349982D01*
X342265Y346747D01*
X342636Y342264D02*
X339400Y339028D01*
X342636Y342264D02*
X336164Y342264D01*
X335356Y343073D01*
X335356Y344690D01*
X336973Y346308D01*
X338591Y346308D01*
X440132Y220867D02*
X440132Y219249D01*
X440132Y220867D02*
X441750Y222485D01*
X443367Y222485D01*
X446603Y219249D01*
X446603Y217631D01*
X444985Y216013D01*
X443367Y216013D01*
X438884Y216383D02*
X435649Y216383D01*
X440502Y211530D01*
X442120Y213148D02*
X438884Y209912D01*
X436828Y207856D02*
X433592Y204620D01*
X430357Y207856D02*
X436828Y207856D01*
X430357Y207856D02*
X429548Y208665D01*
X429548Y210282D01*
X431165Y211900D01*
X432783Y211900D01*
X425873Y204990D02*
X423447Y204181D01*
X425873Y204990D02*
X429109Y204990D01*
X430727Y203373D01*
X430727Y201755D01*
X429109Y200137D01*
X427491Y200137D01*
X426682Y200946D01*
X426682Y202564D01*
X429109Y204990D01*
X385967Y142798D02*
X384349Y142798D01*
X385967Y142798D02*
X387585Y141180D01*
X387585Y139563D01*
X384349Y136327D01*
X382731Y136327D01*
X381113Y137945D01*
X381113Y139563D01*
X381484Y144046D02*
X381484Y147281D01*
X376630Y142428D01*
X378248Y140810D02*
X375012Y144046D01*
X373765Y146911D02*
X377000Y150147D01*
X377000Y151765D01*
X375383Y153382D01*
X373765Y153382D01*
X370529Y150147D01*
X370529Y148529D01*
X372147Y146911D01*
X373765Y146911D01*
X373765Y153382D01*
X370091Y157057D02*
X369282Y159483D01*
X370091Y157057D02*
X370091Y153821D01*
X368473Y152203D01*
X366855Y152203D01*
X365237Y153821D01*
X365237Y155439D01*
X366046Y156248D01*
X367664Y156248D01*
X370091Y153821D01*
X450389Y122478D02*
X452007Y122478D01*
X453625Y120860D01*
X453625Y119243D01*
X450389Y116007D01*
X448771Y116007D01*
X447153Y117625D01*
X447153Y119243D01*
X447524Y123726D02*
X447524Y126961D01*
X442670Y122108D01*
X444288Y120490D02*
X441052Y123726D01*
X439805Y126591D02*
X443040Y129827D01*
X443040Y131445D01*
X441423Y133062D01*
X439805Y133062D01*
X436569Y129827D01*
X436569Y128209D01*
X438187Y126591D01*
X439805Y126591D01*
X439805Y133062D01*
X438557Y135928D02*
X435322Y139163D01*
X434513Y138354D01*
X434513Y131883D01*
X433704Y131074D01*
X323737Y25958D02*
X322119Y25958D01*
X323737Y25958D02*
X325355Y24340D01*
X325355Y22723D01*
X322119Y19487D01*
X320501Y19487D01*
X318883Y21105D01*
X318883Y22723D01*
X319254Y27206D02*
X319254Y30441D01*
X314400Y25588D01*
X316018Y23970D02*
X312782Y27206D01*
X314770Y33307D02*
X314770Y34925D01*
X313153Y36542D01*
X311535Y36542D01*
X310726Y35733D01*
X310726Y34116D01*
X311535Y33307D01*
X310726Y34116D02*
X309108Y34116D01*
X308299Y33307D01*
X308299Y31689D01*
X309917Y30071D01*
X311535Y30071D01*
X308669Y37790D02*
X308669Y41026D01*
X303816Y36172D01*
X305434Y34554D02*
X302198Y37790D01*
X166854Y17153D02*
X166854Y8255D01*
X160922Y8255D02*
X166854Y17153D01*
X160922Y17153D02*
X160922Y8255D01*
X154533Y15670D02*
X151567Y17153D01*
X154533Y15670D02*
X157499Y12704D01*
X157499Y9738D01*
X156016Y8255D01*
X153050Y8255D01*
X151567Y9738D01*
X151567Y11221D01*
X153050Y12704D01*
X157499Y12704D01*
X143695Y8255D02*
X143695Y17153D01*
X148143Y12704D01*
X142212Y12704D01*
X138788Y14187D02*
X138788Y8255D01*
X138788Y14187D02*
X135822Y17153D01*
X132856Y14187D01*
X132856Y8255D01*
X132856Y12704D02*
X138788Y12704D01*
X129433Y6772D02*
X123501Y6772D01*
X120078Y8255D02*
X114146Y8255D01*
X120078Y8255D02*
X114146Y14187D01*
X114146Y15670D01*
X115629Y17153D01*
X118595Y17153D01*
X120078Y15670D01*
X110723Y15670D02*
X110723Y9738D01*
X110723Y15670D02*
X109240Y17153D01*
X106274Y17153D01*
X104791Y15670D01*
X104791Y9738D01*
X106274Y8255D01*
X109240Y8255D01*
X110723Y9738D01*
X104791Y15670D01*
X101367Y8255D02*
X95436Y8255D01*
X101367Y8255D02*
X95436Y14187D01*
X95436Y15670D01*
X96919Y17153D01*
X99885Y17153D01*
X101367Y15670D01*
X92012Y15670D02*
X92012Y9738D01*
X92012Y15670D02*
X90529Y17153D01*
X87563Y17153D01*
X86081Y15670D01*
X86081Y9738D01*
X87563Y8255D01*
X90529Y8255D01*
X92012Y9738D01*
X86081Y15670D01*
X82657Y15670D02*
X82657Y9738D01*
X82657Y15670D02*
X81174Y17153D01*
X78208Y17153D01*
X76725Y15670D01*
X76725Y9738D01*
X78208Y8255D01*
X81174Y8255D01*
X82657Y9738D01*
X76725Y15670D01*
X73302Y15670D02*
X71819Y17153D01*
X68853Y17153D01*
X67370Y15670D01*
X67370Y14187D01*
X68853Y12704D01*
X70336Y12704D01*
X68853Y12704D02*
X67370Y11221D01*
X67370Y9738D01*
X68853Y8255D01*
X71819Y8255D01*
X73302Y9738D01*
X63947Y9738D02*
X63947Y15670D01*
X62464Y17153D01*
X59498Y17153D01*
X58015Y15670D01*
X58015Y9738D01*
X59498Y8255D01*
X62464Y8255D01*
X63947Y9738D01*
X58015Y15670D01*
X54592Y17153D02*
X48660Y17153D01*
X54592Y17153D02*
X54592Y12704D01*
X51626Y14187D01*
X50143Y14187D01*
X48660Y12704D01*
X48660Y9738D01*
X50143Y8255D01*
X53109Y8255D01*
X54592Y9738D01*
X146985Y230637D02*
X148129Y231781D01*
X150417Y231781D01*
X151561Y230637D01*
X151561Y226061D01*
X150417Y224917D01*
X148129Y224917D01*
X146985Y226061D01*
X146985Y228349D01*
X149273Y228349D01*
X144077Y224917D02*
X144077Y231781D01*
X139501Y224917D01*
X139501Y231781D01*
X136593Y231781D02*
X136593Y224917D01*
X133161Y224917D01*
X132017Y226061D01*
X132017Y230637D01*
X133161Y231781D01*
X136593Y231781D01*
X160916Y219589D02*
X160916Y212725D01*
X160916Y219589D02*
X156341Y219589D01*
X158629Y216157D02*
X160916Y216157D01*
X153432Y217301D02*
X152288Y217301D01*
X152288Y212725D01*
X153432Y212725D02*
X151144Y212725D01*
X152288Y219589D02*
X152288Y220733D01*
X148443Y217301D02*
X148443Y212725D01*
X148443Y217301D02*
X145011Y217301D01*
X143867Y216157D01*
X143867Y212725D01*
X138671Y210437D02*
X137527Y210437D01*
X136383Y211581D01*
X136383Y217301D01*
X139815Y217301D01*
X140959Y216157D01*
X140959Y213869D01*
X139815Y212725D01*
X136383Y212725D01*
X132331Y212725D02*
X130043Y212725D01*
X132331Y212725D02*
X133475Y213869D01*
X133475Y216157D01*
X132331Y217301D01*
X130043Y217301D01*
X128899Y216157D01*
X128899Y215013D01*
X133475Y215013D01*
X125990Y212725D02*
X125990Y217301D01*
X125990Y215013D02*
X123702Y217301D01*
X122558Y217301D01*
X521467Y209885D02*
X522611Y208741D01*
X522611Y206453D01*
X521467Y205309D01*
X516891Y205309D01*
X515747Y206453D01*
X515747Y208741D01*
X516891Y209885D01*
X519179Y209885D01*
X519179Y207597D01*
X515747Y212793D02*
X522611Y212793D01*
X515747Y217369D01*
X522611Y217369D01*
X522611Y220277D02*
X515747Y220277D01*
X515747Y223709D01*
X516891Y224853D01*
X521467Y224853D01*
X522611Y223709D01*
X522611Y220277D01*
X510419Y195954D02*
X503555Y195954D01*
X510419Y195954D02*
X510419Y200530D01*
X506987Y198242D02*
X506987Y195954D01*
X508131Y203438D02*
X508131Y204582D01*
X503555Y204582D01*
X503555Y203438D02*
X503555Y205726D01*
X510419Y204582D02*
X511563Y204582D01*
X508131Y208427D02*
X503555Y208427D01*
X508131Y208427D02*
X508131Y211859D01*
X506987Y213003D01*
X503555Y213003D01*
X501267Y218199D02*
X501267Y219343D01*
X502411Y220487D01*
X508131Y220487D01*
X508131Y217055D01*
X506987Y215911D01*
X504699Y215911D01*
X503555Y217055D01*
X503555Y220487D01*
X503555Y224539D02*
X503555Y226827D01*
X503555Y224539D02*
X504699Y223396D01*
X506987Y223396D01*
X508131Y224539D01*
X508131Y226827D01*
X506987Y227971D01*
X505843Y227971D01*
X505843Y223396D01*
X503555Y230880D02*
X508131Y230880D01*
X505843Y230880D02*
X508131Y233168D01*
X508131Y234312D01*
D12*
X104140Y324104D02*
X96520Y324104D01*
X96520Y310896D02*
X104140Y310896D01*
X205179Y91411D02*
X200689Y86921D01*
X206301Y81309D02*
X210791Y85799D01*
X340921Y60931D02*
X345411Y56441D01*
X339799Y50829D02*
X335309Y55319D01*
X341601Y108511D02*
X337111Y113001D01*
X331499Y107389D02*
X335989Y102899D01*
X373351Y140261D02*
X368861Y144751D01*
X363249Y139139D02*
X367739Y134649D01*
X433099Y113739D02*
X437589Y109249D01*
X443201Y114861D02*
X438711Y119351D01*
X389919Y202491D02*
X394409Y206981D01*
X400021Y201369D02*
X395531Y196879D01*
X348009Y245671D02*
X352499Y250161D01*
X358111Y244549D02*
X353621Y240059D01*
X241271Y312981D02*
X236781Y317471D01*
X231169Y311859D02*
X235659Y307369D01*
X227301Y299011D02*
X222811Y303501D01*
X217199Y297889D02*
X221689Y293399D01*
X243869Y222959D02*
X248359Y218469D01*
X253971Y224081D02*
X249481Y228571D01*
X210849Y189939D02*
X215339Y185449D01*
X220951Y191061D02*
X216461Y195551D01*
X234389Y62201D02*
X229899Y57711D01*
X235511Y52099D02*
X240001Y56589D01*
X163195Y150019D02*
X156845Y150019D01*
X156845Y142081D02*
X163195Y142081D01*
X248359Y48231D02*
X243869Y43741D01*
X249481Y38129D02*
X253971Y42619D01*
X323141Y99031D02*
X327631Y94541D01*
X322019Y88929D02*
X317529Y93419D01*
X385371Y161261D02*
X389861Y156771D01*
X384249Y151159D02*
X379759Y155649D01*
X405159Y187251D02*
X409649Y191741D01*
X415261Y186129D02*
X410771Y181639D01*
X314989Y277421D02*
X319479Y281911D01*
X325091Y276299D02*
X320601Y271809D01*
X255241Y326951D02*
X250751Y331441D01*
X245139Y325829D02*
X249629Y321339D01*
X226343Y205179D02*
X230833Y200689D01*
X236445Y206301D02*
X231955Y210791D01*
X318799Y38809D02*
X323289Y34319D01*
X328901Y39931D02*
X324411Y44421D01*
X275652Y347181D02*
X271162Y351671D01*
X265549Y346058D02*
X270039Y341568D01*
X267409Y29181D02*
X262919Y24691D01*
X268531Y19079D02*
X273021Y23569D01*
X356161Y337849D02*
X360651Y342339D01*
X355039Y347951D02*
X350549Y343461D01*
X495935Y115411D02*
X502285Y115411D01*
X502285Y123349D02*
X495935Y123349D01*
X495935Y135731D02*
X502285Y135731D01*
X502285Y143669D02*
X495935Y143669D01*
X532765Y108109D02*
X539115Y108109D01*
X539115Y100171D02*
X532765Y100171D01*
X532765Y128429D02*
X539115Y128429D01*
X539115Y120491D02*
X532765Y120491D01*
X532765Y151289D02*
X539115Y151289D01*
X539115Y143351D02*
X532765Y143351D01*
X532765Y171609D02*
X539115Y171609D01*
X539115Y163671D02*
X532765Y163671D01*
X585311Y215265D02*
X585311Y221615D01*
X593249Y221615D02*
X593249Y215265D01*
X564991Y215265D02*
X564991Y221615D01*
X572929Y221615D02*
X572929Y215265D01*
X485775Y355441D02*
X479425Y355441D01*
X479425Y363379D02*
X485775Y363379D01*
X104775Y181451D02*
X98425Y181451D01*
X98425Y189389D02*
X104775Y189389D01*
X104775Y129381D02*
X98425Y129381D01*
X98425Y137319D02*
X104775Y137319D01*
X26035Y62389D02*
X19685Y62389D01*
X19685Y54451D02*
X26035Y54451D01*
X26035Y36989D02*
X19685Y36989D01*
X19685Y29051D02*
X26035Y29051D01*
X187325Y29051D02*
X193675Y29051D01*
X193675Y36989D02*
X187325Y36989D01*
X104775Y109061D02*
X98425Y109061D01*
X98425Y116999D02*
X104775Y116999D01*
X552609Y215265D02*
X552609Y221615D01*
X544671Y221615D02*
X544671Y215265D01*
X104775Y149701D02*
X98425Y149701D01*
X98425Y157639D02*
X104775Y157639D01*
X81650Y125280D02*
X32650Y125280D01*
X32650Y132360D01*
X32650Y164280D01*
X81650Y164280D01*
X81650Y132360D01*
X81650Y125280D01*
X81650Y132360D02*
X32650Y132360D01*
M02*
