G04 EAGLE Gerber RS-274X export*
G75*
%MOMM*%
%FSLAX34Y34*%
%LPD*%
%INseide top*%
%IPPOS*%
%AMOC8*
5,1,8,0,0,1.08239X$1,22.5*%
G01*
%ADD10C,0.000000*%
%ADD11C,0.152400*%
%ADD12C,0.127000*%
%ADD13C,0.203200*%
%ADD14C,0.304800*%
%ADD15C,0.200000*%
%ADD16C,0.101600*%

G36*
X430595Y348627D02*
X430595Y348627D01*
X430661Y348629D01*
X430704Y348647D01*
X430751Y348655D01*
X430808Y348689D01*
X430868Y348714D01*
X430903Y348745D01*
X430944Y348770D01*
X430986Y348821D01*
X431034Y348865D01*
X431056Y348907D01*
X431085Y348944D01*
X431106Y349006D01*
X431137Y349065D01*
X431145Y349119D01*
X431157Y349156D01*
X431156Y349196D01*
X431164Y349250D01*
X431164Y364940D01*
X431153Y365005D01*
X431151Y365071D01*
X431133Y365114D01*
X431125Y365161D01*
X431091Y365218D01*
X431066Y365278D01*
X431035Y365313D01*
X431010Y365354D01*
X430959Y365396D01*
X430915Y365444D01*
X430873Y365466D01*
X430836Y365495D01*
X430774Y365516D01*
X430715Y365547D01*
X430661Y365555D01*
X430624Y365567D01*
X430584Y365566D01*
X430530Y365574D01*
X417530Y365574D01*
X417465Y365563D01*
X417399Y365561D01*
X417356Y365543D01*
X417309Y365535D01*
X417252Y365501D01*
X417192Y365476D01*
X417157Y365445D01*
X417116Y365420D01*
X417075Y365369D01*
X417026Y365325D01*
X417004Y365283D01*
X416975Y365246D01*
X416954Y365184D01*
X416923Y365125D01*
X416915Y365071D01*
X416903Y365034D01*
X416904Y364994D01*
X416896Y364940D01*
X416896Y349250D01*
X416907Y349185D01*
X416909Y349119D01*
X416927Y349076D01*
X416935Y349029D01*
X416969Y348972D01*
X416994Y348912D01*
X417025Y348877D01*
X417050Y348836D01*
X417101Y348795D01*
X417145Y348746D01*
X417187Y348724D01*
X417224Y348695D01*
X417286Y348674D01*
X417345Y348643D01*
X417399Y348635D01*
X417436Y348623D01*
X417476Y348624D01*
X417530Y348616D01*
X430530Y348616D01*
X430595Y348627D01*
G37*
G36*
X92267Y107581D02*
X92267Y107581D01*
X92333Y107583D01*
X92376Y107601D01*
X92423Y107609D01*
X92480Y107643D01*
X92540Y107668D01*
X92575Y107699D01*
X92616Y107724D01*
X92658Y107775D01*
X92706Y107819D01*
X92728Y107861D01*
X92757Y107898D01*
X92778Y107960D01*
X92809Y108019D01*
X92817Y108073D01*
X92829Y108110D01*
X92828Y108150D01*
X92836Y108204D01*
X92836Y120396D01*
X92825Y120461D01*
X92823Y120527D01*
X92805Y120570D01*
X92797Y120617D01*
X92763Y120674D01*
X92738Y120734D01*
X92707Y120769D01*
X92682Y120810D01*
X92631Y120852D01*
X92587Y120900D01*
X92545Y120922D01*
X92508Y120951D01*
X92446Y120972D01*
X92387Y121003D01*
X92333Y121011D01*
X92296Y121023D01*
X92256Y121022D01*
X92202Y121030D01*
X76200Y121030D01*
X76135Y121019D01*
X76069Y121017D01*
X76026Y120999D01*
X75979Y120991D01*
X75922Y120957D01*
X75862Y120932D01*
X75827Y120901D01*
X75786Y120876D01*
X75745Y120825D01*
X75696Y120781D01*
X75674Y120739D01*
X75645Y120702D01*
X75624Y120640D01*
X75593Y120581D01*
X75585Y120527D01*
X75573Y120490D01*
X75574Y120450D01*
X75566Y120396D01*
X75566Y108204D01*
X75577Y108139D01*
X75579Y108073D01*
X75597Y108030D01*
X75605Y107983D01*
X75639Y107926D01*
X75664Y107866D01*
X75695Y107831D01*
X75720Y107790D01*
X75771Y107749D01*
X75815Y107700D01*
X75857Y107678D01*
X75894Y107649D01*
X75956Y107628D01*
X76015Y107597D01*
X76069Y107589D01*
X76106Y107577D01*
X76146Y107578D01*
X76200Y107570D01*
X92202Y107570D01*
X92267Y107581D01*
G37*
D10*
X16510Y0D02*
X3810Y12700D01*
X3810Y345440D01*
X35560Y377190D01*
X593090Y377190D01*
X599440Y370840D01*
X599440Y316230D01*
X648970Y266700D01*
X648970Y12700D01*
X636270Y0D02*
X16510Y0D01*
X636270Y0D02*
X648970Y12700D01*
D11*
X19224Y344174D02*
X13462Y344174D01*
X16343Y347055D02*
X16343Y341293D01*
X22817Y347055D02*
X24258Y348495D01*
X27139Y348495D01*
X28579Y347055D01*
X28579Y345614D01*
X27139Y344174D01*
X25698Y344174D01*
X27139Y344174D02*
X28579Y342733D01*
X28579Y341293D01*
X27139Y339852D01*
X24258Y339852D01*
X22817Y341293D01*
X32172Y342733D02*
X32172Y348495D01*
X32172Y342733D02*
X35054Y339852D01*
X37935Y342733D01*
X37935Y348495D01*
X41528Y347055D02*
X42968Y348495D01*
X45849Y348495D01*
X47290Y347055D01*
X47290Y345614D01*
X45849Y344174D01*
X44409Y344174D01*
X45849Y344174D02*
X47290Y342733D01*
X47290Y341293D01*
X45849Y339852D01*
X42968Y339852D01*
X41528Y341293D01*
X17784Y316745D02*
X19224Y315305D01*
X17784Y316745D02*
X14903Y316745D01*
X13462Y315305D01*
X13462Y309543D01*
X14903Y308102D01*
X17784Y308102D01*
X19224Y309543D01*
X19224Y312424D01*
X16343Y312424D01*
X22817Y316745D02*
X22817Y308102D01*
X28579Y308102D02*
X22817Y316745D01*
X28579Y316745D02*
X28579Y308102D01*
X32172Y308102D02*
X32172Y316745D01*
X32172Y308102D02*
X36494Y308102D01*
X37935Y309543D01*
X37935Y315305D01*
X36494Y316745D01*
X32172Y316745D01*
X26162Y254515D02*
X26162Y248753D01*
X29043Y245872D01*
X31924Y248753D01*
X31924Y254515D01*
X39839Y254515D02*
X41279Y253075D01*
X39839Y254515D02*
X36958Y254515D01*
X35517Y253075D01*
X35517Y247313D01*
X36958Y245872D01*
X39839Y245872D01*
X41279Y247313D01*
X44872Y254515D02*
X46313Y254515D01*
X46313Y245872D01*
X44872Y245872D02*
X47754Y245872D01*
X51109Y245872D02*
X51109Y254515D01*
X51109Y248753D02*
X55431Y245872D01*
X51109Y248753D02*
X55431Y251634D01*
X31924Y241815D02*
X26162Y233172D01*
X35517Y233172D02*
X35517Y241815D01*
X35517Y233172D02*
X39839Y233172D01*
X41279Y234613D01*
X41279Y240375D01*
X39839Y241815D01*
X35517Y241815D01*
X49194Y241815D02*
X50635Y240375D01*
X49194Y241815D02*
X46313Y241815D01*
X44872Y240375D01*
X44872Y238934D01*
X46313Y237494D01*
X49194Y237494D01*
X50635Y236053D01*
X50635Y234613D01*
X49194Y233172D01*
X46313Y233172D01*
X44872Y234613D01*
X37338Y162794D02*
X28695Y162794D01*
X37338Y162794D02*
X37338Y167116D01*
X35897Y168556D01*
X30135Y168556D01*
X28695Y167116D01*
X28695Y162794D01*
X30135Y172149D02*
X35897Y172149D01*
X30135Y172149D02*
X28695Y173590D01*
X28695Y176471D01*
X30135Y177911D01*
X35897Y177911D01*
X37338Y176471D01*
X37338Y173590D01*
X35897Y172149D01*
X30135Y177911D01*
X33016Y181504D02*
X33016Y187267D01*
X28695Y190860D02*
X37338Y190860D01*
X37338Y195181D01*
X35897Y196622D01*
X30135Y196622D01*
X28695Y195181D01*
X28695Y190860D01*
X30135Y203096D02*
X28695Y205977D01*
X30135Y203096D02*
X33016Y200215D01*
X35897Y200215D01*
X37338Y201655D01*
X37338Y204536D01*
X35897Y205977D01*
X34457Y205977D01*
X33016Y204536D01*
X33016Y200215D01*
X29210Y227330D02*
X38100Y227330D01*
X38100Y142240D02*
X29210Y142240D01*
X33020Y209550D02*
X33020Y226060D01*
X31750Y223520D01*
X34290Y223520D02*
X33020Y226060D01*
X33020Y160020D02*
X33020Y143510D01*
X34290Y146050D01*
X31750Y146050D02*
X33020Y143510D01*
X13974Y104655D02*
X15414Y103215D01*
X13974Y104655D02*
X11093Y104655D01*
X9652Y103215D01*
X9652Y97453D01*
X11093Y96012D01*
X13974Y96012D01*
X15414Y97453D01*
X15414Y100334D01*
X12533Y100334D01*
X19007Y104655D02*
X19007Y96012D01*
X24769Y96012D02*
X19007Y104655D01*
X24769Y104655D02*
X24769Y96012D01*
X28362Y96012D02*
X28362Y104655D01*
X28362Y96012D02*
X32684Y96012D01*
X34125Y97453D01*
X34125Y103215D01*
X32684Y104655D01*
X28362Y104655D01*
X40132Y125393D02*
X40132Y132595D01*
X40132Y125393D02*
X41573Y123952D01*
X44454Y123952D01*
X45894Y125393D01*
X45894Y132595D01*
X49487Y131155D02*
X50928Y132595D01*
X53809Y132595D01*
X55249Y131155D01*
X55249Y129714D01*
X53809Y128274D01*
X55249Y126833D01*
X55249Y125393D01*
X53809Y123952D01*
X50928Y123952D01*
X49487Y125393D01*
X49487Y126833D01*
X50928Y128274D01*
X49487Y129714D01*
X49487Y131155D01*
X50928Y128274D02*
X53809Y128274D01*
D12*
X90427Y131959D02*
X91571Y130815D01*
X90427Y131959D02*
X88139Y131959D01*
X86995Y130815D01*
X86995Y126239D01*
X88139Y125095D01*
X90427Y125095D01*
X91571Y126239D01*
X94479Y130815D02*
X95623Y131959D01*
X97911Y131959D01*
X99055Y130815D01*
X99055Y129671D01*
X97911Y128527D01*
X99055Y127383D01*
X99055Y126239D01*
X97911Y125095D01*
X95623Y125095D01*
X94479Y126239D01*
X94479Y127383D01*
X95623Y128527D01*
X94479Y129671D01*
X94479Y130815D01*
X95623Y128527D02*
X97911Y128527D01*
X101963Y126239D02*
X101963Y130815D01*
X103107Y131959D01*
X105395Y131959D01*
X106539Y130815D01*
X106539Y126239D01*
X105395Y125095D01*
X103107Y125095D01*
X101963Y126239D01*
X106539Y130815D01*
X109447Y129671D02*
X111735Y131959D01*
X111735Y125095D01*
X109447Y125095D02*
X114023Y125095D01*
X106045Y159385D02*
X99181Y159385D01*
X99181Y162817D01*
X100325Y163961D01*
X102613Y163961D01*
X103757Y162817D01*
X103757Y159385D01*
X103757Y161673D02*
X106045Y163961D01*
X106045Y166869D02*
X99181Y166869D01*
X106045Y171445D01*
X99181Y171445D01*
X101469Y174353D02*
X99181Y176641D01*
X106045Y176641D01*
X106045Y174353D02*
X106045Y178929D01*
X104901Y181837D02*
X100325Y181837D01*
X99181Y182981D01*
X99181Y185269D01*
X100325Y186413D01*
X104901Y186413D01*
X106045Y185269D01*
X106045Y182981D01*
X104901Y181837D01*
X100325Y186413D01*
X99181Y196215D02*
X106045Y196215D01*
X99181Y196215D02*
X99181Y199647D01*
X100325Y200791D01*
X102613Y200791D01*
X103757Y199647D01*
X103757Y196215D01*
X103757Y198503D02*
X106045Y200791D01*
X106045Y203699D02*
X99181Y203699D01*
X106045Y208275D01*
X99181Y208275D01*
X101469Y211183D02*
X99181Y213471D01*
X106045Y213471D01*
X106045Y211183D02*
X106045Y215759D01*
X101469Y218667D02*
X99181Y220955D01*
X106045Y220955D01*
X106045Y218667D02*
X106045Y223243D01*
X106045Y240665D02*
X99181Y240665D01*
X99181Y244097D01*
X100325Y245241D01*
X102613Y245241D01*
X103757Y244097D01*
X103757Y240665D01*
X103757Y242953D02*
X106045Y245241D01*
X106045Y248149D02*
X99181Y248149D01*
X106045Y252725D01*
X99181Y252725D01*
X101469Y255633D02*
X99181Y257921D01*
X106045Y257921D01*
X106045Y255633D02*
X106045Y260209D01*
X106045Y263117D02*
X106045Y267693D01*
X106045Y263117D02*
X101469Y267693D01*
X100325Y267693D01*
X99181Y266549D01*
X99181Y264261D01*
X100325Y263117D01*
X60325Y313055D02*
X60325Y319919D01*
X64901Y319919D01*
X62613Y316487D02*
X60325Y316487D01*
X67809Y313055D02*
X67809Y319919D01*
X71241Y319919D01*
X72385Y318775D01*
X72385Y317631D01*
X71241Y316487D01*
X72385Y315343D01*
X72385Y314199D01*
X71241Y313055D01*
X67809Y313055D01*
X67809Y316487D02*
X71241Y316487D01*
X75293Y317631D02*
X77581Y319919D01*
X77581Y313055D01*
X75293Y313055D02*
X79869Y313055D01*
X52201Y372115D02*
X51057Y373259D01*
X48769Y373259D01*
X47625Y372115D01*
X47625Y367539D01*
X48769Y366395D01*
X51057Y366395D01*
X52201Y367539D01*
X55109Y370971D02*
X57397Y373259D01*
X57397Y366395D01*
X55109Y366395D02*
X59685Y366395D01*
X132715Y161169D02*
X132715Y154305D01*
X132715Y161169D02*
X136147Y161169D01*
X137291Y160025D01*
X137291Y157737D01*
X136147Y156593D01*
X132715Y156593D01*
X135003Y156593D02*
X137291Y154305D01*
X140199Y158881D02*
X142487Y161169D01*
X142487Y154305D01*
X140199Y154305D02*
X144775Y154305D01*
X147683Y161169D02*
X152259Y161169D01*
X147683Y161169D02*
X147683Y157737D01*
X149971Y158881D01*
X151115Y158881D01*
X152259Y157737D01*
X152259Y155449D01*
X151115Y154305D01*
X148827Y154305D01*
X147683Y155449D01*
X178435Y107829D02*
X178435Y100965D01*
X178435Y107829D02*
X181867Y107829D01*
X183011Y106685D01*
X183011Y104397D01*
X181867Y103253D01*
X178435Y103253D01*
X180723Y103253D02*
X183011Y100965D01*
X185919Y105541D02*
X188207Y107829D01*
X188207Y100965D01*
X185919Y100965D02*
X190495Y100965D01*
X196835Y100965D02*
X196835Y107829D01*
X193403Y104397D01*
X197979Y104397D01*
D11*
X25063Y42672D02*
X23622Y44113D01*
X25063Y42672D02*
X26503Y42672D01*
X27944Y44113D01*
X27944Y51315D01*
X29384Y51315D02*
X26503Y51315D01*
X32977Y51315D02*
X38739Y51315D01*
X32977Y51315D02*
X32977Y46994D01*
X35858Y48434D01*
X37299Y48434D01*
X38739Y46994D01*
X38739Y44113D01*
X37299Y42672D01*
X34418Y42672D01*
X32977Y44113D01*
X148082Y181273D02*
X148082Y188475D01*
X148082Y181273D02*
X149523Y179832D01*
X152404Y179832D01*
X153844Y181273D01*
X153844Y188475D01*
X157437Y185594D02*
X160318Y188475D01*
X160318Y179832D01*
X157437Y179832D02*
X163199Y179832D01*
X144272Y294303D02*
X144272Y301505D01*
X144272Y294303D02*
X145713Y292862D01*
X148594Y292862D01*
X150034Y294303D01*
X150034Y301505D01*
X156508Y300065D02*
X159389Y301505D01*
X156508Y300065D02*
X153627Y297184D01*
X153627Y294303D01*
X155068Y292862D01*
X157949Y292862D01*
X159389Y294303D01*
X159389Y295743D01*
X157949Y297184D01*
X153627Y297184D01*
X144272Y333673D02*
X144272Y340875D01*
X144272Y333673D02*
X145713Y332232D01*
X148594Y332232D01*
X150034Y333673D01*
X150034Y340875D01*
X153627Y340875D02*
X159389Y340875D01*
X159389Y339435D01*
X153627Y333673D01*
X153627Y332232D01*
D12*
X104135Y313821D02*
X102991Y312677D01*
X102991Y310389D01*
X104135Y309245D01*
X108711Y309245D01*
X109855Y310389D01*
X109855Y312677D01*
X108711Y313821D01*
X102991Y316729D02*
X102991Y321305D01*
X104135Y321305D01*
X108711Y316729D01*
X109855Y316729D01*
X108711Y324213D02*
X104135Y324213D01*
X102991Y325357D01*
X102991Y327645D01*
X104135Y328789D01*
X108711Y328789D01*
X109855Y327645D01*
X109855Y325357D01*
X108711Y324213D01*
X104135Y328789D01*
X105279Y331697D02*
X102991Y333985D01*
X109855Y333985D01*
X109855Y331697D02*
X109855Y336273D01*
X119375Y308741D02*
X118231Y307597D01*
X118231Y305309D01*
X119375Y304165D01*
X123951Y304165D01*
X125095Y305309D01*
X125095Y307597D01*
X123951Y308741D01*
X119375Y313937D02*
X118231Y316225D01*
X119375Y313937D02*
X121663Y311649D01*
X123951Y311649D01*
X125095Y312793D01*
X125095Y315081D01*
X123951Y316225D01*
X122807Y316225D01*
X121663Y315081D01*
X121663Y311649D01*
X123951Y319133D02*
X119375Y319133D01*
X118231Y320277D01*
X118231Y322565D01*
X119375Y323709D01*
X123951Y323709D01*
X125095Y322565D01*
X125095Y320277D01*
X123951Y319133D01*
X119375Y323709D01*
X120519Y326617D02*
X118231Y328905D01*
X125095Y328905D01*
X125095Y326617D02*
X125095Y331193D01*
X194431Y307597D02*
X195575Y308741D01*
X194431Y307597D02*
X194431Y305309D01*
X195575Y304165D01*
X200151Y304165D01*
X201295Y305309D01*
X201295Y307597D01*
X200151Y308741D01*
X195575Y313937D02*
X194431Y316225D01*
X195575Y313937D02*
X197863Y311649D01*
X200151Y311649D01*
X201295Y312793D01*
X201295Y315081D01*
X200151Y316225D01*
X199007Y316225D01*
X197863Y315081D01*
X197863Y311649D01*
X200151Y319133D02*
X195575Y319133D01*
X194431Y320277D01*
X194431Y322565D01*
X195575Y323709D01*
X200151Y323709D01*
X201295Y322565D01*
X201295Y320277D01*
X200151Y319133D01*
X195575Y323709D01*
X201295Y326617D02*
X201295Y331193D01*
X201295Y326617D02*
X196719Y331193D01*
X195575Y331193D01*
X194431Y330049D01*
X194431Y327761D01*
X195575Y326617D01*
X194431Y345697D02*
X195575Y346841D01*
X194431Y345697D02*
X194431Y343409D01*
X195575Y342265D01*
X200151Y342265D01*
X201295Y343409D01*
X201295Y345697D01*
X200151Y346841D01*
X194431Y349749D02*
X194431Y354325D01*
X195575Y354325D01*
X200151Y349749D01*
X201295Y349749D01*
X200151Y357233D02*
X195575Y357233D01*
X194431Y358377D01*
X194431Y360665D01*
X195575Y361809D01*
X200151Y361809D01*
X201295Y360665D01*
X201295Y358377D01*
X200151Y357233D01*
X195575Y361809D01*
X201295Y364717D02*
X201295Y369293D01*
X201295Y364717D02*
X196719Y369293D01*
X195575Y369293D01*
X194431Y368149D01*
X194431Y365861D01*
X195575Y364717D01*
X228857Y313569D02*
X230001Y312425D01*
X228857Y313569D02*
X226569Y313569D01*
X225425Y312425D01*
X225425Y307849D01*
X226569Y306705D01*
X228857Y306705D01*
X230001Y307849D01*
X232909Y311281D02*
X235197Y313569D01*
X235197Y306705D01*
X232909Y306705D02*
X237485Y306705D01*
X240393Y306705D02*
X244969Y306705D01*
X240393Y306705D02*
X244969Y311281D01*
X244969Y312425D01*
X243825Y313569D01*
X241537Y313569D01*
X240393Y312425D01*
X247877Y311281D02*
X250165Y313569D01*
X250165Y306705D01*
X247877Y306705D02*
X252453Y306705D01*
X248285Y352425D02*
X248285Y359289D01*
X252861Y359289D01*
X250573Y355857D02*
X248285Y355857D01*
X255769Y352425D02*
X255769Y359289D01*
X259201Y359289D01*
X260345Y358145D01*
X260345Y357001D01*
X259201Y355857D01*
X260345Y354713D01*
X260345Y353569D01*
X259201Y352425D01*
X255769Y352425D01*
X255769Y355857D02*
X259201Y355857D01*
X263253Y358145D02*
X264397Y359289D01*
X266685Y359289D01*
X267829Y358145D01*
X267829Y357001D01*
X266685Y355857D01*
X265541Y355857D01*
X266685Y355857D02*
X267829Y354713D01*
X267829Y353569D01*
X266685Y352425D01*
X264397Y352425D01*
X263253Y353569D01*
D11*
X338582Y353993D02*
X340023Y352552D01*
X341463Y352552D01*
X342904Y353993D01*
X342904Y361195D01*
X344344Y361195D02*
X341463Y361195D01*
X347937Y358314D02*
X350818Y361195D01*
X350818Y352552D01*
X347937Y352552D02*
X353699Y352552D01*
X344932Y35223D02*
X346373Y33782D01*
X347813Y33782D01*
X349254Y35223D01*
X349254Y42425D01*
X350694Y42425D02*
X347813Y42425D01*
X354287Y33782D02*
X360049Y33782D01*
X354287Y33782D02*
X360049Y39544D01*
X360049Y40985D01*
X358609Y42425D01*
X355728Y42425D01*
X354287Y40985D01*
X262553Y33782D02*
X261112Y35223D01*
X262553Y33782D02*
X263993Y33782D01*
X265434Y35223D01*
X265434Y42425D01*
X266874Y42425D02*
X263993Y42425D01*
X270467Y40985D02*
X271908Y42425D01*
X274789Y42425D01*
X276229Y40985D01*
X276229Y39544D01*
X274789Y38104D01*
X273348Y38104D01*
X274789Y38104D02*
X276229Y36663D01*
X276229Y35223D01*
X274789Y33782D01*
X271908Y33782D01*
X270467Y35223D01*
X223183Y61722D02*
X221742Y63163D01*
X223183Y61722D02*
X224623Y61722D01*
X226064Y63163D01*
X226064Y70365D01*
X227504Y70365D02*
X224623Y70365D01*
X235419Y70365D02*
X235419Y61722D01*
X231097Y66044D02*
X235419Y70365D01*
X236859Y66044D02*
X231097Y66044D01*
X394462Y365423D02*
X394462Y372625D01*
X394462Y365423D02*
X395903Y363982D01*
X398784Y363982D01*
X400224Y365423D01*
X400224Y372625D01*
X408139Y372625D02*
X408139Y363982D01*
X403817Y368304D02*
X408139Y372625D01*
X409579Y368304D02*
X403817Y368304D01*
D12*
X473831Y340995D02*
X480695Y340995D01*
X473831Y340995D02*
X473831Y344427D01*
X474975Y345571D01*
X477263Y345571D01*
X478407Y344427D01*
X478407Y340995D01*
X478407Y343283D02*
X480695Y345571D01*
X480695Y348479D02*
X473831Y348479D01*
X480695Y353055D01*
X473831Y353055D01*
X473831Y359395D02*
X480695Y359395D01*
X477263Y355963D02*
X473831Y359395D01*
X477263Y360539D02*
X477263Y355963D01*
X476119Y363447D02*
X473831Y365735D01*
X480695Y365735D01*
X480695Y363447D02*
X480695Y368023D01*
X505717Y324364D02*
X506861Y323220D01*
X505717Y324364D02*
X503429Y324364D01*
X502285Y323220D01*
X502285Y318644D01*
X503429Y317500D01*
X505717Y317500D01*
X506861Y318644D01*
X509769Y323220D02*
X510913Y324364D01*
X513201Y324364D01*
X514345Y323220D01*
X514345Y322076D01*
X513201Y320932D01*
X512057Y320932D01*
X513201Y320932D02*
X514345Y319788D01*
X514345Y318644D01*
X513201Y317500D01*
X510913Y317500D01*
X509769Y318644D01*
X517253Y318644D02*
X517253Y323220D01*
X518397Y324364D01*
X520685Y324364D01*
X521829Y323220D01*
X521829Y318644D01*
X520685Y317500D01*
X518397Y317500D01*
X517253Y318644D01*
X521829Y323220D01*
X524737Y322076D02*
X527025Y324364D01*
X527025Y317500D01*
X524737Y317500D02*
X529313Y317500D01*
X540642Y303409D02*
X541786Y302265D01*
X540642Y303409D02*
X538354Y303409D01*
X537210Y302265D01*
X537210Y297689D01*
X538354Y296545D01*
X540642Y296545D01*
X541786Y297689D01*
X544694Y302265D02*
X545838Y303409D01*
X548126Y303409D01*
X549270Y302265D01*
X549270Y301121D01*
X548126Y299977D01*
X546982Y299977D01*
X548126Y299977D02*
X549270Y298833D01*
X549270Y297689D01*
X548126Y296545D01*
X545838Y296545D01*
X544694Y297689D01*
X552178Y302265D02*
X553322Y303409D01*
X555610Y303409D01*
X556754Y302265D01*
X556754Y301121D01*
X555610Y299977D01*
X554466Y299977D01*
X555610Y299977D02*
X556754Y298833D01*
X556754Y297689D01*
X555610Y296545D01*
X553322Y296545D01*
X552178Y297689D01*
X487811Y259085D02*
X486667Y260229D01*
X484379Y260229D01*
X483235Y259085D01*
X483235Y254509D01*
X484379Y253365D01*
X486667Y253365D01*
X487811Y254509D01*
X490719Y259085D02*
X491863Y260229D01*
X494151Y260229D01*
X495295Y259085D01*
X495295Y257941D01*
X494151Y256797D01*
X493007Y256797D01*
X494151Y256797D02*
X495295Y255653D01*
X495295Y254509D01*
X494151Y253365D01*
X491863Y253365D01*
X490719Y254509D01*
X501635Y253365D02*
X501635Y260229D01*
X498203Y256797D01*
X502779Y256797D01*
X560705Y269875D02*
X560705Y276739D01*
X564137Y276739D01*
X565281Y275595D01*
X565281Y273307D01*
X564137Y272163D01*
X560705Y272163D01*
X562993Y272163D02*
X565281Y269875D01*
X568189Y275595D02*
X569333Y276739D01*
X571621Y276739D01*
X572765Y275595D01*
X572765Y274451D01*
X571621Y273307D01*
X570477Y273307D01*
X571621Y273307D02*
X572765Y272163D01*
X572765Y271019D01*
X571621Y269875D01*
X569333Y269875D01*
X568189Y271019D01*
X579105Y269875D02*
X579105Y276739D01*
X575673Y273307D01*
X580249Y273307D01*
X384175Y283845D02*
X377311Y283845D01*
X377311Y287277D01*
X378455Y288421D01*
X380743Y288421D01*
X381887Y287277D01*
X381887Y283845D01*
X381887Y286133D02*
X384175Y288421D01*
X379599Y291329D02*
X377311Y293617D01*
X384175Y293617D01*
X384175Y291329D02*
X384175Y295905D01*
X378455Y301101D02*
X377311Y303389D01*
X378455Y301101D02*
X380743Y298813D01*
X383031Y298813D01*
X384175Y299957D01*
X384175Y302245D01*
X383031Y303389D01*
X381887Y303389D01*
X380743Y302245D01*
X380743Y298813D01*
X393065Y323215D02*
X393065Y330079D01*
X396497Y330079D01*
X397641Y328935D01*
X397641Y326647D01*
X396497Y325503D01*
X393065Y325503D01*
X395353Y325503D02*
X397641Y323215D01*
X400549Y328935D02*
X401693Y330079D01*
X403981Y330079D01*
X405125Y328935D01*
X405125Y327791D01*
X403981Y326647D01*
X402837Y326647D01*
X403981Y326647D02*
X405125Y325503D01*
X405125Y324359D01*
X403981Y323215D01*
X401693Y323215D01*
X400549Y324359D01*
X408033Y327791D02*
X410321Y330079D01*
X410321Y323215D01*
X408033Y323215D02*
X412609Y323215D01*
X393065Y316109D02*
X393065Y309245D01*
X393065Y316109D02*
X396497Y316109D01*
X397641Y314965D01*
X397641Y312677D01*
X396497Y311533D01*
X393065Y311533D01*
X395353Y311533D02*
X397641Y309245D01*
X400549Y314965D02*
X401693Y316109D01*
X403981Y316109D01*
X405125Y314965D01*
X405125Y313821D01*
X403981Y312677D01*
X402837Y312677D01*
X403981Y312677D02*
X405125Y311533D01*
X405125Y310389D01*
X403981Y309245D01*
X401693Y309245D01*
X400549Y310389D01*
X408033Y309245D02*
X412609Y309245D01*
X408033Y309245D02*
X412609Y313821D01*
X412609Y314965D01*
X411465Y316109D01*
X409177Y316109D01*
X408033Y314965D01*
X467617Y332619D02*
X468761Y331475D01*
X467617Y332619D02*
X465329Y332619D01*
X464185Y331475D01*
X464185Y326899D01*
X465329Y325755D01*
X467617Y325755D01*
X468761Y326899D01*
X471669Y331475D02*
X472813Y332619D01*
X475101Y332619D01*
X476245Y331475D01*
X476245Y330331D01*
X475101Y329187D01*
X473957Y329187D01*
X475101Y329187D02*
X476245Y328043D01*
X476245Y326899D01*
X475101Y325755D01*
X472813Y325755D01*
X471669Y326899D01*
X479153Y326899D02*
X479153Y331475D01*
X480297Y332619D01*
X482585Y332619D01*
X483729Y331475D01*
X483729Y326899D01*
X482585Y325755D01*
X480297Y325755D01*
X479153Y326899D01*
X483729Y331475D01*
X486637Y325755D02*
X491213Y325755D01*
X486637Y325755D02*
X491213Y330331D01*
X491213Y331475D01*
X490069Y332619D01*
X487781Y332619D01*
X486637Y331475D01*
D11*
X451612Y265945D02*
X451612Y258743D01*
X453053Y257302D01*
X455934Y257302D01*
X457374Y258743D01*
X457374Y265945D01*
X460967Y264505D02*
X462408Y265945D01*
X465289Y265945D01*
X466729Y264505D01*
X466729Y263064D01*
X465289Y261624D01*
X463848Y261624D01*
X465289Y261624D02*
X466729Y260183D01*
X466729Y258743D01*
X465289Y257302D01*
X462408Y257302D01*
X460967Y258743D01*
X514986Y365252D02*
X520749Y373895D01*
X528663Y373895D02*
X530104Y372455D01*
X528663Y373895D02*
X525782Y373895D01*
X524342Y372455D01*
X524342Y366693D01*
X525782Y365252D01*
X528663Y365252D01*
X530104Y366693D01*
X538019Y373895D02*
X539459Y372455D01*
X538019Y373895D02*
X535137Y373895D01*
X533697Y372455D01*
X533697Y371014D01*
X535137Y369574D01*
X538019Y369574D01*
X539459Y368133D01*
X539459Y366693D01*
X538019Y365252D01*
X535137Y365252D01*
X533697Y366693D01*
X520510Y357385D02*
X514748Y348742D01*
X524103Y348742D02*
X524103Y357385D01*
X524103Y353064D02*
X529865Y353064D01*
X529865Y357385D02*
X529865Y348742D01*
X537780Y357385D02*
X539220Y355945D01*
X537780Y357385D02*
X534899Y357385D01*
X533458Y355945D01*
X533458Y354504D01*
X534899Y353064D01*
X537780Y353064D01*
X539220Y351623D01*
X539220Y350183D01*
X537780Y348742D01*
X534899Y348742D01*
X533458Y350183D01*
X542813Y348742D02*
X542813Y357385D01*
X545932Y357385D02*
X545932Y348742D01*
X545932Y357385D02*
X551694Y357385D01*
X548813Y353064D02*
X545932Y353064D01*
X555287Y354504D02*
X558168Y357385D01*
X558168Y348742D01*
X555287Y348742D02*
X561049Y348742D01*
X520510Y340875D02*
X514748Y332232D01*
X524103Y335113D02*
X524103Y340875D01*
X524103Y335113D02*
X526984Y332232D01*
X529865Y335113D01*
X529865Y340875D01*
X537780Y340875D02*
X539220Y339435D01*
X537780Y340875D02*
X534899Y340875D01*
X533458Y339435D01*
X533458Y337994D01*
X534899Y336554D01*
X537780Y336554D01*
X539220Y335113D01*
X539220Y333673D01*
X537780Y332232D01*
X534899Y332232D01*
X533458Y333673D01*
X542813Y332232D02*
X542813Y340875D01*
X545932Y340875D02*
X545932Y332232D01*
X545932Y340875D02*
X551694Y340875D01*
X548813Y336554D02*
X545932Y336554D01*
X555287Y332232D02*
X561049Y332232D01*
X555287Y332232D02*
X561049Y337994D01*
X561049Y339435D01*
X559608Y340875D01*
X556727Y340875D01*
X555287Y339435D01*
X568964Y292615D02*
X570404Y291175D01*
X568964Y292615D02*
X566083Y292615D01*
X564642Y291175D01*
X564642Y285413D01*
X566083Y283972D01*
X568964Y283972D01*
X570404Y285413D01*
X570404Y288294D01*
X567523Y288294D01*
X573997Y292615D02*
X573997Y283972D01*
X579759Y283972D02*
X573997Y292615D01*
X579759Y292615D02*
X579759Y283972D01*
X583352Y283972D02*
X583352Y292615D01*
X583352Y283972D02*
X587674Y283972D01*
X589115Y285413D01*
X589115Y291175D01*
X587674Y292615D01*
X583352Y292615D01*
X594534Y265945D02*
X588772Y257302D01*
X602449Y265945D02*
X603889Y264505D01*
X602449Y265945D02*
X599568Y265945D01*
X598127Y264505D01*
X598127Y258743D01*
X599568Y257302D01*
X602449Y257302D01*
X603889Y258743D01*
X611804Y265945D02*
X613245Y264505D01*
X611804Y265945D02*
X608923Y265945D01*
X607482Y264505D01*
X607482Y263064D01*
X608923Y261624D01*
X611804Y261624D01*
X613245Y260183D01*
X613245Y258743D01*
X611804Y257302D01*
X608923Y257302D01*
X607482Y258743D01*
D12*
X589663Y243205D02*
X587375Y245493D01*
X587375Y247781D01*
X589663Y250069D01*
X592364Y250069D02*
X596940Y250069D01*
X596940Y248925D01*
X592364Y244349D01*
X592364Y243205D01*
X599849Y250069D02*
X604425Y250069D01*
X599849Y250069D02*
X599849Y246637D01*
X602137Y247781D01*
X603281Y247781D01*
X604425Y246637D01*
X604425Y244349D01*
X603281Y243205D01*
X600993Y243205D01*
X599849Y244349D01*
X607333Y243205D02*
X608477Y243205D01*
X608477Y245493D01*
X607333Y246637D01*
X607333Y248925D01*
X608477Y250069D01*
X610765Y250069D01*
X611909Y248925D01*
X611909Y246637D01*
X610765Y245493D01*
X610765Y243205D01*
X611909Y243205D01*
X614817Y243205D02*
X617105Y245493D01*
X617105Y247781D01*
X614817Y250069D01*
D11*
X463042Y196730D02*
X463042Y189528D01*
X464483Y188087D01*
X467364Y188087D01*
X468804Y189528D01*
X468804Y196730D01*
X472397Y188087D02*
X478159Y188087D01*
X472397Y188087D02*
X478159Y193849D01*
X478159Y195290D01*
X476719Y196730D01*
X473838Y196730D01*
X472397Y195290D01*
D12*
X574161Y142875D02*
X581025Y142875D01*
X574161Y142875D02*
X574161Y146307D01*
X575305Y147451D01*
X577593Y147451D01*
X578737Y146307D01*
X578737Y142875D01*
X578737Y145163D02*
X581025Y147451D01*
X581025Y150359D02*
X574161Y150359D01*
X581025Y154935D01*
X574161Y154935D01*
X581025Y157843D02*
X581025Y162419D01*
X581025Y157843D02*
X576449Y162419D01*
X575305Y162419D01*
X574161Y161275D01*
X574161Y158987D01*
X575305Y157843D01*
X575305Y165327D02*
X574161Y166471D01*
X574161Y168759D01*
X575305Y169903D01*
X576449Y169903D01*
X577593Y168759D01*
X577593Y167615D01*
X577593Y168759D02*
X578737Y169903D01*
X579881Y169903D01*
X581025Y168759D01*
X581025Y166471D01*
X579881Y165327D01*
D11*
X582422Y223012D02*
X582422Y231655D01*
X586744Y231655D01*
X588184Y230215D01*
X588184Y227334D01*
X586744Y225893D01*
X582422Y225893D01*
X585303Y225893D02*
X588184Y223012D01*
X591777Y223012D02*
X597539Y231655D01*
X601132Y231655D02*
X601132Y223012D01*
X601132Y231655D02*
X605454Y231655D01*
X606895Y230215D01*
X606895Y227334D01*
X605454Y225893D01*
X601132Y225893D01*
X610488Y223012D02*
X610488Y228774D01*
X610488Y225893D02*
X613369Y228774D01*
X614809Y228774D01*
X623574Y141485D02*
X625014Y140045D01*
X623574Y141485D02*
X620693Y141485D01*
X619252Y140045D01*
X619252Y134283D01*
X620693Y132842D01*
X623574Y132842D01*
X625014Y134283D01*
X625014Y137164D01*
X622133Y137164D01*
X628607Y141485D02*
X628607Y132842D01*
X634369Y132842D02*
X628607Y141485D01*
X634369Y141485D02*
X634369Y132842D01*
X637962Y132842D02*
X637962Y141485D01*
X637962Y132842D02*
X642284Y132842D01*
X643725Y134283D01*
X643725Y140045D01*
X642284Y141485D01*
X637962Y141485D01*
X625014Y107954D02*
X619252Y107954D01*
X622133Y110835D02*
X622133Y105073D01*
X628607Y112275D02*
X634369Y112275D01*
X628607Y112275D02*
X628607Y107954D01*
X631488Y109394D01*
X632929Y109394D01*
X634369Y107954D01*
X634369Y105073D01*
X632929Y103632D01*
X630048Y103632D01*
X628607Y105073D01*
X637962Y106513D02*
X637962Y112275D01*
X637962Y106513D02*
X640844Y103632D01*
X643725Y106513D01*
X643725Y112275D01*
D12*
X587375Y110369D02*
X587375Y103505D01*
X587375Y110369D02*
X591951Y110369D01*
X589663Y106937D02*
X587375Y106937D01*
X594859Y103505D02*
X594859Y110369D01*
X598291Y110369D01*
X599435Y109225D01*
X599435Y108081D01*
X598291Y106937D01*
X599435Y105793D01*
X599435Y104649D01*
X598291Y103505D01*
X594859Y103505D01*
X594859Y106937D02*
X598291Y106937D01*
X602343Y103505D02*
X606919Y103505D01*
X602343Y103505D02*
X606919Y108081D01*
X606919Y109225D01*
X605775Y110369D01*
X603487Y110369D01*
X602343Y109225D01*
X555121Y69855D02*
X553977Y70999D01*
X551689Y70999D01*
X550545Y69855D01*
X550545Y65279D01*
X551689Y64135D01*
X553977Y64135D01*
X555121Y65279D01*
X558029Y64135D02*
X562605Y64135D01*
X558029Y64135D02*
X562605Y68711D01*
X562605Y69855D01*
X561461Y70999D01*
X559173Y70999D01*
X558029Y69855D01*
X553085Y208915D02*
X546221Y208915D01*
X546221Y212347D01*
X547365Y213491D01*
X549653Y213491D01*
X550797Y212347D01*
X550797Y208915D01*
X550797Y211203D02*
X553085Y213491D01*
X553085Y216399D02*
X553085Y220975D01*
X553085Y216399D02*
X548509Y220975D01*
X547365Y220975D01*
X546221Y219831D01*
X546221Y217543D01*
X547365Y216399D01*
X548509Y223883D02*
X546221Y226171D01*
X553085Y226171D01*
X553085Y223883D02*
X553085Y228459D01*
X122555Y131959D02*
X122555Y125095D01*
X122555Y131959D02*
X127131Y131959D01*
X124843Y128527D02*
X122555Y128527D01*
X130039Y125095D02*
X130039Y131959D01*
X133471Y131959D01*
X134615Y130815D01*
X134615Y129671D01*
X133471Y128527D01*
X134615Y127383D01*
X134615Y126239D01*
X133471Y125095D01*
X130039Y125095D01*
X130039Y128527D02*
X133471Y128527D01*
X140955Y125095D02*
X140955Y131959D01*
X137523Y128527D01*
X142099Y128527D01*
D11*
X449072Y57324D02*
X449072Y51562D01*
X449072Y57324D02*
X451953Y60205D01*
X454834Y57324D01*
X454834Y51562D01*
X454834Y55884D02*
X449072Y55884D01*
X464189Y60205D02*
X464189Y51562D01*
X459868Y51562D01*
X458427Y53003D01*
X458427Y55884D01*
X459868Y57324D01*
X464189Y57324D01*
X467782Y57324D02*
X470664Y51562D01*
X473545Y57324D01*
X478578Y57324D02*
X481459Y57324D01*
X482900Y55884D01*
X482900Y51562D01*
X478578Y51562D01*
X477138Y53003D01*
X478578Y54443D01*
X482900Y54443D01*
X486493Y51562D02*
X486493Y57324D01*
X490814Y57324D01*
X492255Y55884D01*
X492255Y51562D01*
X497289Y57324D02*
X501610Y57324D01*
X497289Y57324D02*
X495848Y55884D01*
X495848Y53003D01*
X497289Y51562D01*
X501610Y51562D01*
X506644Y51562D02*
X509525Y51562D01*
X506644Y51562D02*
X505203Y53003D01*
X505203Y55884D01*
X506644Y57324D01*
X509525Y57324D01*
X510965Y55884D01*
X510965Y54443D01*
X505203Y54443D01*
X520321Y51562D02*
X520321Y60205D01*
X520321Y51562D02*
X515999Y51562D01*
X514558Y53003D01*
X514558Y55884D01*
X515999Y57324D01*
X520321Y57324D01*
D13*
X469646Y67056D02*
X469646Y77733D01*
X476764Y67056D01*
X476764Y77733D01*
X484899Y75954D02*
X488458Y77733D01*
X484899Y75954D02*
X481340Y72395D01*
X481340Y68836D01*
X483119Y67056D01*
X486679Y67056D01*
X488458Y68836D01*
X488458Y70615D01*
X486679Y72395D01*
X481340Y72395D01*
X498373Y77733D02*
X498373Y67056D01*
X493034Y72395D02*
X498373Y77733D01*
X500152Y72395D02*
X493034Y72395D01*
D11*
X128834Y243161D02*
X123072Y243161D01*
X132427Y243161D02*
X138189Y243161D01*
X141782Y244602D02*
X147545Y253245D01*
X154019Y247483D02*
X151138Y244602D01*
X154019Y247483D02*
X154019Y250364D01*
X151138Y253245D01*
X157374Y243161D02*
X163137Y243161D01*
X166730Y243161D02*
X172492Y243161D01*
X176085Y244602D02*
X181847Y253245D01*
X188321Y247483D02*
X185440Y244602D01*
X188321Y247483D02*
X188321Y250364D01*
X185440Y253245D01*
X191677Y243161D02*
X197439Y243161D01*
D14*
X214062Y49530D02*
X214064Y49578D01*
X214070Y49625D01*
X214080Y49671D01*
X214094Y49717D01*
X214111Y49761D01*
X214132Y49804D01*
X214157Y49844D01*
X214185Y49883D01*
X214216Y49919D01*
X214250Y49952D01*
X214287Y49982D01*
X214326Y50010D01*
X214367Y50033D01*
X214410Y50054D01*
X214454Y50070D01*
X214500Y50083D01*
X214547Y50092D01*
X214594Y50097D01*
X214642Y50098D01*
X214689Y50095D01*
X214736Y50088D01*
X214783Y50077D01*
X214828Y50062D01*
X214872Y50044D01*
X214914Y50022D01*
X214954Y49996D01*
X214992Y49968D01*
X215027Y49936D01*
X215060Y49901D01*
X215090Y49864D01*
X215116Y49824D01*
X215139Y49783D01*
X215158Y49739D01*
X215174Y49694D01*
X215186Y49648D01*
X215194Y49601D01*
X215198Y49554D01*
X215198Y49506D01*
X215194Y49459D01*
X215186Y49412D01*
X215174Y49366D01*
X215158Y49321D01*
X215139Y49277D01*
X215116Y49236D01*
X215090Y49196D01*
X215060Y49159D01*
X215027Y49124D01*
X214992Y49092D01*
X214954Y49064D01*
X214914Y49038D01*
X214872Y49016D01*
X214828Y48998D01*
X214783Y48983D01*
X214736Y48972D01*
X214689Y48965D01*
X214642Y48962D01*
X214594Y48963D01*
X214547Y48968D01*
X214500Y48977D01*
X214454Y48990D01*
X214410Y49006D01*
X214367Y49027D01*
X214326Y49050D01*
X214287Y49078D01*
X214250Y49108D01*
X214216Y49141D01*
X214185Y49177D01*
X214157Y49216D01*
X214132Y49256D01*
X214111Y49299D01*
X214094Y49343D01*
X214080Y49389D01*
X214070Y49435D01*
X214064Y49482D01*
X214062Y49530D01*
X262322Y5080D02*
X262324Y5128D01*
X262330Y5175D01*
X262340Y5221D01*
X262354Y5267D01*
X262371Y5311D01*
X262392Y5354D01*
X262417Y5394D01*
X262445Y5433D01*
X262476Y5469D01*
X262510Y5502D01*
X262547Y5532D01*
X262586Y5560D01*
X262627Y5583D01*
X262670Y5604D01*
X262714Y5620D01*
X262760Y5633D01*
X262807Y5642D01*
X262854Y5647D01*
X262902Y5648D01*
X262949Y5645D01*
X262996Y5638D01*
X263043Y5627D01*
X263088Y5612D01*
X263132Y5594D01*
X263174Y5572D01*
X263214Y5546D01*
X263252Y5518D01*
X263287Y5486D01*
X263320Y5451D01*
X263350Y5414D01*
X263376Y5374D01*
X263399Y5333D01*
X263418Y5289D01*
X263434Y5244D01*
X263446Y5198D01*
X263454Y5151D01*
X263458Y5104D01*
X263458Y5056D01*
X263454Y5009D01*
X263446Y4962D01*
X263434Y4916D01*
X263418Y4871D01*
X263399Y4827D01*
X263376Y4786D01*
X263350Y4746D01*
X263320Y4709D01*
X263287Y4674D01*
X263252Y4642D01*
X263214Y4614D01*
X263174Y4588D01*
X263132Y4566D01*
X263088Y4548D01*
X263043Y4533D01*
X262996Y4522D01*
X262949Y4515D01*
X262902Y4512D01*
X262854Y4513D01*
X262807Y4518D01*
X262760Y4527D01*
X262714Y4540D01*
X262670Y4556D01*
X262627Y4577D01*
X262586Y4600D01*
X262547Y4628D01*
X262510Y4658D01*
X262476Y4691D01*
X262445Y4727D01*
X262417Y4766D01*
X262392Y4806D01*
X262371Y4849D01*
X262354Y4893D01*
X262340Y4939D01*
X262330Y4985D01*
X262324Y5032D01*
X262322Y5080D01*
X327092Y5080D02*
X327094Y5128D01*
X327100Y5175D01*
X327110Y5221D01*
X327124Y5267D01*
X327141Y5311D01*
X327162Y5354D01*
X327187Y5394D01*
X327215Y5433D01*
X327246Y5469D01*
X327280Y5502D01*
X327317Y5532D01*
X327356Y5560D01*
X327397Y5583D01*
X327440Y5604D01*
X327484Y5620D01*
X327530Y5633D01*
X327577Y5642D01*
X327624Y5647D01*
X327672Y5648D01*
X327719Y5645D01*
X327766Y5638D01*
X327813Y5627D01*
X327858Y5612D01*
X327902Y5594D01*
X327944Y5572D01*
X327984Y5546D01*
X328022Y5518D01*
X328057Y5486D01*
X328090Y5451D01*
X328120Y5414D01*
X328146Y5374D01*
X328169Y5333D01*
X328188Y5289D01*
X328204Y5244D01*
X328216Y5198D01*
X328224Y5151D01*
X328228Y5104D01*
X328228Y5056D01*
X328224Y5009D01*
X328216Y4962D01*
X328204Y4916D01*
X328188Y4871D01*
X328169Y4827D01*
X328146Y4786D01*
X328120Y4746D01*
X328090Y4709D01*
X328057Y4674D01*
X328022Y4642D01*
X327984Y4614D01*
X327944Y4588D01*
X327902Y4566D01*
X327858Y4548D01*
X327813Y4533D01*
X327766Y4522D01*
X327719Y4515D01*
X327672Y4512D01*
X327624Y4513D01*
X327577Y4518D01*
X327530Y4527D01*
X327484Y4540D01*
X327440Y4556D01*
X327397Y4577D01*
X327356Y4600D01*
X327317Y4628D01*
X327280Y4658D01*
X327246Y4691D01*
X327215Y4727D01*
X327187Y4766D01*
X327162Y4806D01*
X327141Y4849D01*
X327124Y4893D01*
X327110Y4939D01*
X327100Y4985D01*
X327094Y5032D01*
X327092Y5080D01*
X294072Y372110D02*
X294074Y372158D01*
X294080Y372205D01*
X294090Y372251D01*
X294104Y372297D01*
X294121Y372341D01*
X294142Y372384D01*
X294167Y372424D01*
X294195Y372463D01*
X294226Y372499D01*
X294260Y372532D01*
X294297Y372562D01*
X294336Y372590D01*
X294377Y372613D01*
X294420Y372634D01*
X294464Y372650D01*
X294510Y372663D01*
X294557Y372672D01*
X294604Y372677D01*
X294652Y372678D01*
X294699Y372675D01*
X294746Y372668D01*
X294793Y372657D01*
X294838Y372642D01*
X294882Y372624D01*
X294924Y372602D01*
X294964Y372576D01*
X295002Y372548D01*
X295037Y372516D01*
X295070Y372481D01*
X295100Y372444D01*
X295126Y372404D01*
X295149Y372363D01*
X295168Y372319D01*
X295184Y372274D01*
X295196Y372228D01*
X295204Y372181D01*
X295208Y372134D01*
X295208Y372086D01*
X295204Y372039D01*
X295196Y371992D01*
X295184Y371946D01*
X295168Y371901D01*
X295149Y371857D01*
X295126Y371816D01*
X295100Y371776D01*
X295070Y371739D01*
X295037Y371704D01*
X295002Y371672D01*
X294964Y371644D01*
X294924Y371618D01*
X294882Y371596D01*
X294838Y371578D01*
X294793Y371563D01*
X294746Y371552D01*
X294699Y371545D01*
X294652Y371542D01*
X294604Y371543D01*
X294557Y371548D01*
X294510Y371557D01*
X294464Y371570D01*
X294420Y371586D01*
X294377Y371607D01*
X294336Y371630D01*
X294297Y371658D01*
X294260Y371688D01*
X294226Y371721D01*
X294195Y371757D01*
X294167Y371796D01*
X294142Y371836D01*
X294121Y371879D01*
X294104Y371923D01*
X294090Y371969D01*
X294080Y372015D01*
X294074Y372062D01*
X294072Y372110D01*
D11*
X113030Y339090D02*
X113030Y308610D01*
X113030Y339090D02*
X125730Y351790D01*
X123190Y346710D01*
X120650Y349250D02*
X125730Y351790D01*
X113030Y308610D02*
X111760Y307340D01*
X586744Y212605D02*
X588184Y211165D01*
X586744Y212605D02*
X583863Y212605D01*
X582422Y211165D01*
X582422Y205403D01*
X583863Y203962D01*
X586744Y203962D01*
X588184Y205403D01*
X588184Y208284D01*
X585303Y208284D01*
X591777Y203962D02*
X596099Y203962D01*
X597539Y205403D01*
X596099Y206843D01*
X593218Y206843D01*
X591777Y208284D01*
X593218Y209724D01*
X597539Y209724D01*
X601132Y203962D02*
X606895Y212605D01*
X610488Y212605D02*
X610488Y211165D01*
X613369Y208284D01*
X616250Y211165D01*
X616250Y212605D01*
X613369Y208284D02*
X613369Y203962D01*
X582422Y193555D02*
X582422Y184912D01*
X582422Y193555D02*
X586744Y193555D01*
X588184Y192115D01*
X588184Y190674D01*
X586744Y189234D01*
X588184Y187793D01*
X588184Y186353D01*
X586744Y184912D01*
X582422Y184912D01*
X582422Y189234D02*
X586744Y189234D01*
X591777Y184912D02*
X597539Y193555D01*
X601132Y193555D02*
X601132Y184912D01*
X601132Y193555D02*
X605454Y193555D01*
X606895Y192115D01*
X606895Y189234D01*
X605454Y187793D01*
X601132Y187793D01*
X610488Y184912D02*
X610488Y193555D01*
X610488Y184912D02*
X614809Y184912D01*
X616250Y186353D01*
X616250Y189234D01*
X614809Y190674D01*
X610488Y190674D01*
D15*
X430469Y98331D02*
X427116Y105129D01*
X431134Y112470D01*
X432312Y99388D02*
X430469Y98663D01*
X430469Y98331D01*
X443761Y99631D02*
X446270Y98603D01*
X443761Y99631D02*
X449411Y105460D01*
X445182Y101111D02*
X445182Y112499D01*
X438384Y109811D02*
X432312Y99388D01*
X438384Y101836D01*
X443761Y99631D01*
X438384Y109811D02*
X431134Y112470D01*
X438112Y114916D01*
X445182Y112499D01*
X438384Y109811D01*
X419744Y108179D02*
X412796Y105913D01*
X419744Y108179D02*
X426935Y105491D01*
X449411Y105460D02*
X456874Y108542D01*
X464124Y105913D01*
X456481Y102772D02*
X449411Y105460D01*
X438384Y101836D02*
X430469Y98663D01*
X438384Y101836D02*
X446270Y98603D01*
X445997Y86700D02*
X445997Y78846D01*
X448475Y75553D01*
X456874Y72652D01*
X426935Y75523D02*
X420017Y88120D01*
X426935Y75523D02*
X420017Y72683D01*
X438475Y95400D02*
X446270Y98603D01*
X456481Y102772D02*
X464124Y105913D01*
X464124Y75643D01*
X456874Y72652D01*
X445997Y86700D01*
X445997Y78846D02*
X445997Y68212D01*
X438475Y65100D01*
X438475Y95400D02*
X430469Y98663D01*
X438475Y95400D02*
X438475Y65100D01*
X430984Y68181D01*
X420017Y88120D01*
X420017Y72683D01*
X412796Y75643D01*
X412796Y105913D01*
X420348Y102832D01*
X430469Y83166D01*
X420348Y102832D02*
X426935Y105491D01*
X430469Y98331D01*
X430469Y83166D01*
X446270Y98603D02*
X456481Y84132D01*
X456481Y102772D01*
D11*
X31924Y265775D02*
X30484Y267215D01*
X27603Y267215D01*
X26162Y265775D01*
X26162Y260013D01*
X27603Y258572D01*
X30484Y258572D01*
X31924Y260013D01*
X36958Y260013D02*
X36958Y265775D01*
X36958Y260013D02*
X38398Y258572D01*
X38398Y264334D02*
X35517Y264334D01*
X41754Y264334D02*
X41754Y258572D01*
X41754Y261453D02*
X44635Y264334D01*
X46076Y264334D01*
X49550Y267215D02*
X50991Y267215D01*
X50991Y258572D01*
X52431Y258572D02*
X49550Y258572D01*
X26162Y278892D02*
X31924Y287535D01*
X35517Y287535D02*
X35517Y278892D01*
X35517Y287535D02*
X39839Y287535D01*
X41279Y286095D01*
X41279Y283214D01*
X39839Y281773D01*
X35517Y281773D01*
X38398Y281773D02*
X41279Y278892D01*
X44872Y278892D02*
X49194Y278892D01*
X50635Y280333D01*
X49194Y281773D01*
X46313Y281773D01*
X44872Y283214D01*
X46313Y284654D01*
X50635Y284654D01*
X55668Y286095D02*
X55668Y280333D01*
X57109Y278892D01*
X57109Y284654D02*
X54228Y284654D01*
X72390Y348996D02*
X80010Y348996D01*
X80010Y362204D02*
X72390Y362204D01*
X243840Y330454D02*
X251460Y330454D01*
X251460Y317246D02*
X243840Y317246D01*
X580390Y55626D02*
X588010Y55626D01*
X588010Y68834D02*
X580390Y68834D01*
X519430Y312674D02*
X511810Y312674D01*
X511810Y299466D02*
X519430Y299466D01*
X462121Y306070D02*
X462121Y312420D01*
X470059Y312420D02*
X470059Y306070D01*
X518160Y292354D02*
X525780Y292354D01*
X525780Y279146D02*
X518160Y279146D01*
X518160Y270764D02*
X525780Y270764D01*
X525780Y257556D02*
X518160Y257556D01*
X137319Y314325D02*
X137319Y320675D01*
X129381Y320675D02*
X129381Y314325D01*
X213519Y314325D02*
X213519Y320675D01*
X205581Y320675D02*
X205581Y314325D01*
X137319Y351155D02*
X137319Y357505D01*
X129381Y357505D02*
X129381Y351155D01*
X213519Y352425D02*
X213519Y358775D01*
X205581Y358775D02*
X205581Y352425D01*
X76835Y334169D02*
X70485Y334169D01*
X70485Y326231D02*
X76835Y326231D01*
X593725Y91281D02*
X600075Y91281D01*
X600075Y99219D02*
X593725Y99219D01*
X331470Y367030D02*
X288290Y367030D01*
X285750Y349250D02*
X285752Y349150D01*
X285758Y349051D01*
X285768Y348951D01*
X285781Y348853D01*
X285799Y348754D01*
X285820Y348657D01*
X285845Y348561D01*
X285874Y348465D01*
X285907Y348371D01*
X285943Y348278D01*
X285983Y348187D01*
X286027Y348097D01*
X286074Y348009D01*
X286124Y347923D01*
X286178Y347839D01*
X286235Y347757D01*
X286295Y347678D01*
X286359Y347600D01*
X286425Y347526D01*
X286494Y347454D01*
X286566Y347385D01*
X286640Y347319D01*
X286718Y347255D01*
X286797Y347195D01*
X286879Y347138D01*
X286963Y347084D01*
X287049Y347034D01*
X287137Y346987D01*
X287227Y346943D01*
X287318Y346903D01*
X287411Y346867D01*
X287505Y346834D01*
X287601Y346805D01*
X287697Y346780D01*
X287794Y346759D01*
X287893Y346741D01*
X287991Y346728D01*
X288091Y346718D01*
X288190Y346712D01*
X288290Y346710D01*
X331470Y346710D02*
X331570Y346712D01*
X331669Y346718D01*
X331769Y346728D01*
X331867Y346741D01*
X331966Y346759D01*
X332063Y346780D01*
X332159Y346805D01*
X332255Y346834D01*
X332349Y346867D01*
X332442Y346903D01*
X332533Y346943D01*
X332623Y346987D01*
X332711Y347034D01*
X332797Y347084D01*
X332881Y347138D01*
X332963Y347195D01*
X333042Y347255D01*
X333120Y347319D01*
X333194Y347385D01*
X333266Y347454D01*
X333335Y347526D01*
X333401Y347600D01*
X333465Y347678D01*
X333525Y347757D01*
X333582Y347839D01*
X333636Y347923D01*
X333686Y348009D01*
X333733Y348097D01*
X333777Y348187D01*
X333817Y348278D01*
X333853Y348371D01*
X333886Y348465D01*
X333915Y348561D01*
X333940Y348657D01*
X333961Y348754D01*
X333979Y348853D01*
X333992Y348951D01*
X334002Y349051D01*
X334008Y349150D01*
X334010Y349250D01*
X334010Y364490D02*
X334008Y364590D01*
X334002Y364689D01*
X333992Y364789D01*
X333979Y364887D01*
X333961Y364986D01*
X333940Y365083D01*
X333915Y365179D01*
X333886Y365275D01*
X333853Y365369D01*
X333817Y365462D01*
X333777Y365553D01*
X333733Y365643D01*
X333686Y365731D01*
X333636Y365817D01*
X333582Y365901D01*
X333525Y365983D01*
X333465Y366062D01*
X333401Y366140D01*
X333335Y366214D01*
X333266Y366286D01*
X333194Y366355D01*
X333120Y366421D01*
X333042Y366485D01*
X332963Y366545D01*
X332881Y366602D01*
X332797Y366656D01*
X332711Y366706D01*
X332623Y366753D01*
X332533Y366797D01*
X332442Y366837D01*
X332349Y366873D01*
X332255Y366906D01*
X332159Y366935D01*
X332063Y366960D01*
X331966Y366981D01*
X331867Y366999D01*
X331769Y367012D01*
X331669Y367022D01*
X331570Y367028D01*
X331470Y367030D01*
X288290Y367030D02*
X288190Y367028D01*
X288091Y367022D01*
X287991Y367012D01*
X287893Y366999D01*
X287794Y366981D01*
X287697Y366960D01*
X287601Y366935D01*
X287505Y366906D01*
X287411Y366873D01*
X287318Y366837D01*
X287227Y366797D01*
X287137Y366753D01*
X287049Y366706D01*
X286963Y366656D01*
X286879Y366602D01*
X286797Y366545D01*
X286718Y366485D01*
X286640Y366421D01*
X286566Y366355D01*
X286494Y366286D01*
X286425Y366214D01*
X286359Y366140D01*
X286295Y366062D01*
X286235Y365983D01*
X286178Y365901D01*
X286124Y365817D01*
X286074Y365731D01*
X286027Y365643D01*
X285983Y365553D01*
X285943Y365462D01*
X285907Y365369D01*
X285874Y365275D01*
X285845Y365179D01*
X285820Y365083D01*
X285799Y364986D01*
X285781Y364887D01*
X285768Y364789D01*
X285758Y364689D01*
X285752Y364590D01*
X285750Y364490D01*
X285750Y349250D01*
X334010Y349250D02*
X334010Y364490D01*
X331470Y346710D02*
X288290Y346710D01*
X218440Y54610D02*
X218440Y11430D01*
X236220Y8890D02*
X236320Y8892D01*
X236419Y8898D01*
X236519Y8908D01*
X236617Y8921D01*
X236716Y8939D01*
X236813Y8960D01*
X236909Y8985D01*
X237005Y9014D01*
X237099Y9047D01*
X237192Y9083D01*
X237283Y9123D01*
X237373Y9167D01*
X237461Y9214D01*
X237547Y9264D01*
X237631Y9318D01*
X237713Y9375D01*
X237792Y9435D01*
X237870Y9499D01*
X237944Y9565D01*
X238016Y9634D01*
X238085Y9706D01*
X238151Y9780D01*
X238215Y9858D01*
X238275Y9937D01*
X238332Y10019D01*
X238386Y10103D01*
X238436Y10189D01*
X238483Y10277D01*
X238527Y10367D01*
X238567Y10458D01*
X238603Y10551D01*
X238636Y10645D01*
X238665Y10741D01*
X238690Y10837D01*
X238711Y10934D01*
X238729Y11033D01*
X238742Y11131D01*
X238752Y11231D01*
X238758Y11330D01*
X238760Y11430D01*
X238760Y54610D02*
X238758Y54710D01*
X238752Y54809D01*
X238742Y54909D01*
X238729Y55007D01*
X238711Y55106D01*
X238690Y55203D01*
X238665Y55299D01*
X238636Y55395D01*
X238603Y55489D01*
X238567Y55582D01*
X238527Y55673D01*
X238483Y55763D01*
X238436Y55851D01*
X238386Y55937D01*
X238332Y56021D01*
X238275Y56103D01*
X238215Y56182D01*
X238151Y56260D01*
X238085Y56334D01*
X238016Y56406D01*
X237944Y56475D01*
X237870Y56541D01*
X237792Y56605D01*
X237713Y56665D01*
X237631Y56722D01*
X237547Y56776D01*
X237461Y56826D01*
X237373Y56873D01*
X237283Y56917D01*
X237192Y56957D01*
X237099Y56993D01*
X237005Y57026D01*
X236909Y57055D01*
X236813Y57080D01*
X236716Y57101D01*
X236617Y57119D01*
X236519Y57132D01*
X236419Y57142D01*
X236320Y57148D01*
X236220Y57150D01*
X220980Y57150D02*
X220880Y57148D01*
X220781Y57142D01*
X220681Y57132D01*
X220583Y57119D01*
X220484Y57101D01*
X220387Y57080D01*
X220291Y57055D01*
X220195Y57026D01*
X220101Y56993D01*
X220008Y56957D01*
X219917Y56917D01*
X219827Y56873D01*
X219739Y56826D01*
X219653Y56776D01*
X219569Y56722D01*
X219487Y56665D01*
X219408Y56605D01*
X219330Y56541D01*
X219256Y56475D01*
X219184Y56406D01*
X219115Y56334D01*
X219049Y56260D01*
X218985Y56182D01*
X218925Y56103D01*
X218868Y56021D01*
X218814Y55937D01*
X218764Y55851D01*
X218717Y55763D01*
X218673Y55673D01*
X218633Y55582D01*
X218597Y55489D01*
X218564Y55395D01*
X218535Y55299D01*
X218510Y55203D01*
X218489Y55106D01*
X218471Y55007D01*
X218458Y54909D01*
X218448Y54809D01*
X218442Y54710D01*
X218440Y54610D01*
X218440Y11430D02*
X218442Y11330D01*
X218448Y11231D01*
X218458Y11131D01*
X218471Y11033D01*
X218489Y10934D01*
X218510Y10837D01*
X218535Y10741D01*
X218564Y10645D01*
X218597Y10551D01*
X218633Y10458D01*
X218673Y10367D01*
X218717Y10277D01*
X218764Y10189D01*
X218814Y10103D01*
X218868Y10019D01*
X218925Y9937D01*
X218985Y9858D01*
X219049Y9780D01*
X219115Y9706D01*
X219184Y9634D01*
X219256Y9565D01*
X219330Y9499D01*
X219408Y9435D01*
X219487Y9375D01*
X219569Y9318D01*
X219653Y9264D01*
X219739Y9214D01*
X219827Y9167D01*
X219917Y9123D01*
X220008Y9083D01*
X220101Y9047D01*
X220195Y9014D01*
X220291Y8985D01*
X220387Y8960D01*
X220484Y8939D01*
X220583Y8921D01*
X220681Y8908D01*
X220781Y8898D01*
X220880Y8892D01*
X220980Y8890D01*
X236220Y8890D01*
X236220Y57150D02*
X220980Y57150D01*
X238760Y54610D02*
X238760Y11430D01*
X257810Y8890D02*
X300990Y8890D01*
X303530Y26670D02*
X303528Y26770D01*
X303522Y26869D01*
X303512Y26969D01*
X303499Y27067D01*
X303481Y27166D01*
X303460Y27263D01*
X303435Y27359D01*
X303406Y27455D01*
X303373Y27549D01*
X303337Y27642D01*
X303297Y27733D01*
X303253Y27823D01*
X303206Y27911D01*
X303156Y27997D01*
X303102Y28081D01*
X303045Y28163D01*
X302985Y28242D01*
X302921Y28320D01*
X302855Y28394D01*
X302786Y28466D01*
X302714Y28535D01*
X302640Y28601D01*
X302562Y28665D01*
X302483Y28725D01*
X302401Y28782D01*
X302317Y28836D01*
X302231Y28886D01*
X302143Y28933D01*
X302053Y28977D01*
X301962Y29017D01*
X301869Y29053D01*
X301775Y29086D01*
X301679Y29115D01*
X301583Y29140D01*
X301486Y29161D01*
X301387Y29179D01*
X301289Y29192D01*
X301189Y29202D01*
X301090Y29208D01*
X300990Y29210D01*
X257810Y29210D02*
X257710Y29208D01*
X257611Y29202D01*
X257511Y29192D01*
X257413Y29179D01*
X257314Y29161D01*
X257217Y29140D01*
X257121Y29115D01*
X257025Y29086D01*
X256931Y29053D01*
X256838Y29017D01*
X256747Y28977D01*
X256657Y28933D01*
X256569Y28886D01*
X256483Y28836D01*
X256399Y28782D01*
X256317Y28725D01*
X256238Y28665D01*
X256160Y28601D01*
X256086Y28535D01*
X256014Y28466D01*
X255945Y28394D01*
X255879Y28320D01*
X255815Y28242D01*
X255755Y28163D01*
X255698Y28081D01*
X255644Y27997D01*
X255594Y27911D01*
X255547Y27823D01*
X255503Y27733D01*
X255463Y27642D01*
X255427Y27549D01*
X255394Y27455D01*
X255365Y27359D01*
X255340Y27263D01*
X255319Y27166D01*
X255301Y27067D01*
X255288Y26969D01*
X255278Y26869D01*
X255272Y26770D01*
X255270Y26670D01*
X255270Y11430D02*
X255272Y11330D01*
X255278Y11231D01*
X255288Y11131D01*
X255301Y11033D01*
X255319Y10934D01*
X255340Y10837D01*
X255365Y10741D01*
X255394Y10645D01*
X255427Y10551D01*
X255463Y10458D01*
X255503Y10367D01*
X255547Y10277D01*
X255594Y10189D01*
X255644Y10103D01*
X255698Y10019D01*
X255755Y9937D01*
X255815Y9858D01*
X255879Y9780D01*
X255945Y9706D01*
X256014Y9634D01*
X256086Y9565D01*
X256160Y9499D01*
X256238Y9435D01*
X256317Y9375D01*
X256399Y9318D01*
X256483Y9264D01*
X256569Y9214D01*
X256657Y9167D01*
X256747Y9123D01*
X256838Y9083D01*
X256931Y9047D01*
X257025Y9014D01*
X257121Y8985D01*
X257217Y8960D01*
X257314Y8939D01*
X257413Y8921D01*
X257511Y8908D01*
X257611Y8898D01*
X257710Y8892D01*
X257810Y8890D01*
X300990Y8890D02*
X301090Y8892D01*
X301189Y8898D01*
X301289Y8908D01*
X301387Y8921D01*
X301486Y8939D01*
X301583Y8960D01*
X301679Y8985D01*
X301775Y9014D01*
X301869Y9047D01*
X301962Y9083D01*
X302053Y9123D01*
X302143Y9167D01*
X302231Y9214D01*
X302317Y9264D01*
X302401Y9318D01*
X302483Y9375D01*
X302562Y9435D01*
X302640Y9499D01*
X302714Y9565D01*
X302786Y9634D01*
X302855Y9706D01*
X302921Y9780D01*
X302985Y9858D01*
X303045Y9937D01*
X303102Y10019D01*
X303156Y10103D01*
X303206Y10189D01*
X303253Y10277D01*
X303297Y10367D01*
X303337Y10458D01*
X303373Y10551D01*
X303406Y10645D01*
X303435Y10741D01*
X303460Y10837D01*
X303481Y10934D01*
X303499Y11033D01*
X303512Y11131D01*
X303522Y11231D01*
X303528Y11330D01*
X303530Y11430D01*
X303530Y26670D01*
X255270Y26670D02*
X255270Y11430D01*
X257810Y29210D02*
X300990Y29210D01*
X321310Y8890D02*
X364490Y8890D01*
X367030Y26670D02*
X367028Y26770D01*
X367022Y26869D01*
X367012Y26969D01*
X366999Y27067D01*
X366981Y27166D01*
X366960Y27263D01*
X366935Y27359D01*
X366906Y27455D01*
X366873Y27549D01*
X366837Y27642D01*
X366797Y27733D01*
X366753Y27823D01*
X366706Y27911D01*
X366656Y27997D01*
X366602Y28081D01*
X366545Y28163D01*
X366485Y28242D01*
X366421Y28320D01*
X366355Y28394D01*
X366286Y28466D01*
X366214Y28535D01*
X366140Y28601D01*
X366062Y28665D01*
X365983Y28725D01*
X365901Y28782D01*
X365817Y28836D01*
X365731Y28886D01*
X365643Y28933D01*
X365553Y28977D01*
X365462Y29017D01*
X365369Y29053D01*
X365275Y29086D01*
X365179Y29115D01*
X365083Y29140D01*
X364986Y29161D01*
X364887Y29179D01*
X364789Y29192D01*
X364689Y29202D01*
X364590Y29208D01*
X364490Y29210D01*
X321310Y29210D02*
X321210Y29208D01*
X321111Y29202D01*
X321011Y29192D01*
X320913Y29179D01*
X320814Y29161D01*
X320717Y29140D01*
X320621Y29115D01*
X320525Y29086D01*
X320431Y29053D01*
X320338Y29017D01*
X320247Y28977D01*
X320157Y28933D01*
X320069Y28886D01*
X319983Y28836D01*
X319899Y28782D01*
X319817Y28725D01*
X319738Y28665D01*
X319660Y28601D01*
X319586Y28535D01*
X319514Y28466D01*
X319445Y28394D01*
X319379Y28320D01*
X319315Y28242D01*
X319255Y28163D01*
X319198Y28081D01*
X319144Y27997D01*
X319094Y27911D01*
X319047Y27823D01*
X319003Y27733D01*
X318963Y27642D01*
X318927Y27549D01*
X318894Y27455D01*
X318865Y27359D01*
X318840Y27263D01*
X318819Y27166D01*
X318801Y27067D01*
X318788Y26969D01*
X318778Y26869D01*
X318772Y26770D01*
X318770Y26670D01*
X318770Y11430D02*
X318772Y11330D01*
X318778Y11231D01*
X318788Y11131D01*
X318801Y11033D01*
X318819Y10934D01*
X318840Y10837D01*
X318865Y10741D01*
X318894Y10645D01*
X318927Y10551D01*
X318963Y10458D01*
X319003Y10367D01*
X319047Y10277D01*
X319094Y10189D01*
X319144Y10103D01*
X319198Y10019D01*
X319255Y9937D01*
X319315Y9858D01*
X319379Y9780D01*
X319445Y9706D01*
X319514Y9634D01*
X319586Y9565D01*
X319660Y9499D01*
X319738Y9435D01*
X319817Y9375D01*
X319899Y9318D01*
X319983Y9264D01*
X320069Y9214D01*
X320157Y9167D01*
X320247Y9123D01*
X320338Y9083D01*
X320431Y9047D01*
X320525Y9014D01*
X320621Y8985D01*
X320717Y8960D01*
X320814Y8939D01*
X320913Y8921D01*
X321011Y8908D01*
X321111Y8898D01*
X321210Y8892D01*
X321310Y8890D01*
X364490Y8890D02*
X364590Y8892D01*
X364689Y8898D01*
X364789Y8908D01*
X364887Y8921D01*
X364986Y8939D01*
X365083Y8960D01*
X365179Y8985D01*
X365275Y9014D01*
X365369Y9047D01*
X365462Y9083D01*
X365553Y9123D01*
X365643Y9167D01*
X365731Y9214D01*
X365817Y9264D01*
X365901Y9318D01*
X365983Y9375D01*
X366062Y9435D01*
X366140Y9499D01*
X366214Y9565D01*
X366286Y9634D01*
X366355Y9706D01*
X366421Y9780D01*
X366485Y9858D01*
X366545Y9937D01*
X366602Y10019D01*
X366656Y10103D01*
X366706Y10189D01*
X366753Y10277D01*
X366797Y10367D01*
X366837Y10458D01*
X366873Y10551D01*
X366906Y10645D01*
X366935Y10741D01*
X366960Y10837D01*
X366981Y10934D01*
X366999Y11033D01*
X367012Y11131D01*
X367022Y11231D01*
X367028Y11330D01*
X367030Y11430D01*
X367030Y26670D01*
X318770Y26670D02*
X318770Y11430D01*
X321310Y29210D02*
X364490Y29210D01*
X164465Y101441D02*
X158115Y101441D01*
X158115Y109379D02*
X164465Y109379D01*
X145415Y140811D02*
X139065Y140811D01*
X139065Y148749D02*
X145415Y148749D01*
X398939Y288925D02*
X398939Y295275D01*
X391001Y295275D02*
X391001Y288925D01*
X557371Y221615D02*
X557371Y215265D01*
X565309Y215265D02*
X565309Y221615D01*
X433705Y324009D02*
X427355Y324009D01*
X427355Y316071D02*
X433705Y316071D01*
X433705Y303689D02*
X427355Y303689D01*
X427355Y295751D02*
X433705Y295751D01*
X567055Y263049D02*
X573405Y263049D01*
X573405Y255111D02*
X567055Y255111D01*
D16*
X90050Y149600D02*
X75050Y149600D01*
X75050Y180600D02*
X90050Y180600D01*
X90050Y194050D02*
X75050Y194050D01*
X75050Y225050D02*
X90050Y225050D01*
X90050Y238500D02*
X75050Y238500D01*
X75050Y269500D02*
X90050Y269500D01*
X491610Y338830D02*
X506610Y338830D01*
X506610Y369830D02*
X491610Y369830D01*
D13*
X174690Y187674D02*
X174690Y180626D01*
X314674Y47690D02*
X447610Y180626D01*
X447610Y187674D02*
X314674Y320610D01*
X307626Y320610D02*
X174690Y187674D01*
X174690Y180626D02*
X307626Y47690D01*
X314674Y47690D01*
X447610Y180626D02*
X447610Y187674D01*
X314674Y320610D02*
X307626Y320610D01*
X193013Y184150D02*
X193015Y184291D01*
X193021Y184432D01*
X193031Y184572D01*
X193045Y184712D01*
X193063Y184852D01*
X193084Y184991D01*
X193110Y185130D01*
X193139Y185268D01*
X193173Y185404D01*
X193210Y185540D01*
X193251Y185675D01*
X193296Y185809D01*
X193345Y185941D01*
X193397Y186072D01*
X193453Y186201D01*
X193513Y186328D01*
X193576Y186454D01*
X193642Y186578D01*
X193713Y186701D01*
X193786Y186821D01*
X193863Y186939D01*
X193943Y187055D01*
X194027Y187168D01*
X194113Y187279D01*
X194203Y187388D01*
X194296Y187494D01*
X194391Y187597D01*
X194490Y187698D01*
X194591Y187796D01*
X194695Y187891D01*
X194802Y187983D01*
X194911Y188072D01*
X195023Y188157D01*
X195137Y188240D01*
X195253Y188320D01*
X195372Y188396D01*
X195493Y188468D01*
X195615Y188538D01*
X195740Y188603D01*
X195866Y188666D01*
X195994Y188724D01*
X196124Y188779D01*
X196255Y188831D01*
X196388Y188878D01*
X196522Y188922D01*
X196657Y188963D01*
X196793Y188999D01*
X196930Y189031D01*
X197068Y189060D01*
X197206Y189085D01*
X197346Y189105D01*
X197486Y189122D01*
X197626Y189135D01*
X197767Y189144D01*
X197907Y189149D01*
X198048Y189150D01*
X198189Y189147D01*
X198330Y189140D01*
X198470Y189129D01*
X198610Y189114D01*
X198750Y189095D01*
X198889Y189073D01*
X199027Y189046D01*
X199165Y189016D01*
X199301Y188981D01*
X199437Y188943D01*
X199571Y188901D01*
X199705Y188855D01*
X199837Y188806D01*
X199967Y188752D01*
X200096Y188695D01*
X200223Y188635D01*
X200349Y188571D01*
X200472Y188503D01*
X200594Y188432D01*
X200714Y188358D01*
X200831Y188280D01*
X200946Y188199D01*
X201059Y188115D01*
X201170Y188028D01*
X201278Y187937D01*
X201383Y187844D01*
X201486Y187747D01*
X201586Y187648D01*
X201683Y187546D01*
X201777Y187441D01*
X201868Y187334D01*
X201956Y187224D01*
X202041Y187112D01*
X202123Y186997D01*
X202202Y186880D01*
X202277Y186761D01*
X202349Y186640D01*
X202417Y186517D01*
X202482Y186392D01*
X202544Y186265D01*
X202601Y186136D01*
X202656Y186006D01*
X202706Y185875D01*
X202753Y185742D01*
X202796Y185608D01*
X202835Y185472D01*
X202870Y185336D01*
X202902Y185199D01*
X202929Y185061D01*
X202953Y184922D01*
X202973Y184782D01*
X202989Y184642D01*
X203001Y184502D01*
X203009Y184361D01*
X203013Y184220D01*
X203013Y184080D01*
X203009Y183939D01*
X203001Y183798D01*
X202989Y183658D01*
X202973Y183518D01*
X202953Y183378D01*
X202929Y183239D01*
X202902Y183101D01*
X202870Y182964D01*
X202835Y182828D01*
X202796Y182692D01*
X202753Y182558D01*
X202706Y182425D01*
X202656Y182294D01*
X202601Y182164D01*
X202544Y182035D01*
X202482Y181908D01*
X202417Y181783D01*
X202349Y181660D01*
X202277Y181539D01*
X202202Y181420D01*
X202123Y181303D01*
X202041Y181188D01*
X201956Y181076D01*
X201868Y180966D01*
X201777Y180859D01*
X201683Y180754D01*
X201586Y180652D01*
X201486Y180553D01*
X201383Y180456D01*
X201278Y180363D01*
X201170Y180272D01*
X201059Y180185D01*
X200946Y180101D01*
X200831Y180020D01*
X200714Y179942D01*
X200594Y179868D01*
X200472Y179797D01*
X200349Y179729D01*
X200223Y179665D01*
X200096Y179605D01*
X199967Y179548D01*
X199837Y179494D01*
X199705Y179445D01*
X199571Y179399D01*
X199437Y179357D01*
X199301Y179319D01*
X199165Y179284D01*
X199027Y179254D01*
X198889Y179227D01*
X198750Y179205D01*
X198610Y179186D01*
X198470Y179171D01*
X198330Y179160D01*
X198189Y179153D01*
X198048Y179150D01*
X197907Y179151D01*
X197767Y179156D01*
X197626Y179165D01*
X197486Y179178D01*
X197346Y179195D01*
X197206Y179215D01*
X197068Y179240D01*
X196930Y179269D01*
X196793Y179301D01*
X196657Y179337D01*
X196522Y179378D01*
X196388Y179422D01*
X196255Y179469D01*
X196124Y179521D01*
X195994Y179576D01*
X195866Y179634D01*
X195740Y179697D01*
X195615Y179762D01*
X195493Y179832D01*
X195372Y179904D01*
X195253Y179980D01*
X195137Y180060D01*
X195023Y180143D01*
X194911Y180228D01*
X194802Y180317D01*
X194695Y180409D01*
X194591Y180504D01*
X194490Y180602D01*
X194391Y180703D01*
X194296Y180806D01*
X194203Y180912D01*
X194113Y181021D01*
X194027Y181132D01*
X193943Y181245D01*
X193863Y181361D01*
X193786Y181479D01*
X193713Y181599D01*
X193642Y181722D01*
X193576Y181846D01*
X193513Y181972D01*
X193453Y182099D01*
X193397Y182228D01*
X193345Y182359D01*
X193296Y182491D01*
X193251Y182625D01*
X193210Y182760D01*
X193173Y182896D01*
X193139Y183032D01*
X193110Y183170D01*
X193084Y183309D01*
X193063Y183448D01*
X193045Y183588D01*
X193031Y183728D01*
X193021Y183868D01*
X193015Y184009D01*
X193013Y184150D01*
D11*
X489430Y167200D02*
X489432Y167299D01*
X489438Y167399D01*
X489448Y167498D01*
X489462Y167596D01*
X489479Y167694D01*
X489501Y167791D01*
X489526Y167887D01*
X489555Y167982D01*
X489588Y168076D01*
X489625Y168168D01*
X489665Y168259D01*
X489709Y168348D01*
X489757Y168436D01*
X489808Y168521D01*
X489862Y168604D01*
X489919Y168686D01*
X489980Y168764D01*
X490044Y168841D01*
X490110Y168914D01*
X490180Y168985D01*
X490252Y169053D01*
X490327Y169119D01*
X490405Y169181D01*
X490485Y169240D01*
X490567Y169296D01*
X490651Y169348D01*
X490738Y169397D01*
X490826Y169443D01*
X490916Y169485D01*
X491008Y169524D01*
X491101Y169559D01*
X491195Y169590D01*
X491291Y169617D01*
X491388Y169640D01*
X491485Y169660D01*
X491583Y169676D01*
X491682Y169688D01*
X491781Y169696D01*
X491880Y169700D01*
X491980Y169700D01*
X492079Y169696D01*
X492178Y169688D01*
X492277Y169676D01*
X492375Y169660D01*
X492472Y169640D01*
X492569Y169617D01*
X492665Y169590D01*
X492759Y169559D01*
X492852Y169524D01*
X492944Y169485D01*
X493034Y169443D01*
X493122Y169397D01*
X493209Y169348D01*
X493293Y169296D01*
X493375Y169240D01*
X493455Y169181D01*
X493533Y169119D01*
X493608Y169053D01*
X493680Y168985D01*
X493750Y168914D01*
X493816Y168841D01*
X493880Y168764D01*
X493941Y168686D01*
X493998Y168604D01*
X494052Y168521D01*
X494103Y168436D01*
X494151Y168348D01*
X494195Y168259D01*
X494235Y168168D01*
X494272Y168076D01*
X494305Y167982D01*
X494334Y167887D01*
X494359Y167791D01*
X494381Y167694D01*
X494398Y167596D01*
X494412Y167498D01*
X494422Y167399D01*
X494428Y167299D01*
X494430Y167200D01*
X494428Y167101D01*
X494422Y167001D01*
X494412Y166902D01*
X494398Y166804D01*
X494381Y166706D01*
X494359Y166609D01*
X494334Y166513D01*
X494305Y166418D01*
X494272Y166324D01*
X494235Y166232D01*
X494195Y166141D01*
X494151Y166052D01*
X494103Y165964D01*
X494052Y165879D01*
X493998Y165796D01*
X493941Y165714D01*
X493880Y165636D01*
X493816Y165559D01*
X493750Y165486D01*
X493680Y165415D01*
X493608Y165347D01*
X493533Y165281D01*
X493455Y165219D01*
X493375Y165160D01*
X493293Y165104D01*
X493209Y165052D01*
X493122Y165003D01*
X493034Y164957D01*
X492944Y164915D01*
X492852Y164876D01*
X492759Y164841D01*
X492665Y164810D01*
X492569Y164783D01*
X492472Y164760D01*
X492375Y164740D01*
X492277Y164724D01*
X492178Y164712D01*
X492079Y164704D01*
X491980Y164700D01*
X491880Y164700D01*
X491781Y164704D01*
X491682Y164712D01*
X491583Y164724D01*
X491485Y164740D01*
X491388Y164760D01*
X491291Y164783D01*
X491195Y164810D01*
X491101Y164841D01*
X491008Y164876D01*
X490916Y164915D01*
X490826Y164957D01*
X490738Y165003D01*
X490651Y165052D01*
X490567Y165104D01*
X490485Y165160D01*
X490405Y165219D01*
X490327Y165281D01*
X490252Y165347D01*
X490180Y165415D01*
X490110Y165486D01*
X490044Y165559D01*
X489980Y165636D01*
X489919Y165714D01*
X489862Y165796D01*
X489808Y165879D01*
X489757Y165964D01*
X489709Y166052D01*
X489665Y166141D01*
X489625Y166232D01*
X489588Y166324D01*
X489555Y166418D01*
X489526Y166513D01*
X489501Y166609D01*
X489479Y166706D01*
X489462Y166804D01*
X489448Y166902D01*
X489438Y167001D01*
X489432Y167101D01*
X489430Y167200D01*
X489430Y174700D02*
X551930Y174700D01*
X551930Y104700D02*
X486930Y104700D01*
X484430Y107200D02*
X484430Y169700D01*
X554430Y172200D02*
X554430Y107200D01*
X489430Y174700D02*
X484430Y169700D01*
X551930Y174700D02*
X554430Y172200D01*
X554430Y107200D02*
X551930Y104700D01*
X486930Y104700D02*
X484430Y107200D01*
X481230Y268130D02*
X481230Y288130D01*
X481230Y268130D02*
X472774Y268130D01*
X468730Y268130D01*
X468730Y288130D01*
X472774Y288130D01*
X481230Y288130D01*
X472774Y288130D02*
X472774Y268130D01*
D12*
X444530Y365190D02*
X416530Y365190D01*
X444530Y365190D02*
X444530Y333310D01*
X416530Y333310D01*
X416530Y365190D01*
D11*
X179554Y303276D02*
X163346Y303276D01*
X163346Y331724D02*
X179554Y331724D01*
X179554Y322724D02*
X179554Y312276D01*
X163346Y321776D02*
X163346Y322724D01*
X163346Y313224D02*
X163346Y312276D01*
X163346Y330776D02*
X163346Y331724D01*
X163346Y304224D02*
X163346Y303276D01*
X179554Y303276D02*
X179554Y304224D01*
X179554Y330776D02*
X179554Y331724D01*
X179554Y341376D02*
X163346Y341376D01*
X163346Y369824D02*
X179554Y369824D01*
X179554Y360824D02*
X179554Y350376D01*
X163346Y359876D02*
X163346Y360824D01*
X163346Y351324D02*
X163346Y350376D01*
X163346Y368876D02*
X163346Y369824D01*
X163346Y342324D02*
X163346Y341376D01*
X179554Y341376D02*
X179554Y342324D01*
X179554Y368876D02*
X179554Y369824D01*
D13*
X206680Y87720D02*
X6680Y87720D01*
X206680Y87720D02*
X206680Y3720D01*
X166060Y3720D01*
X166060Y6720D01*
X151270Y6720D01*
X151270Y3720D01*
X125510Y3720D01*
X125510Y19220D01*
X87850Y19220D01*
X87850Y3720D01*
X125510Y3720D01*
X87850Y3720D02*
X6680Y3720D01*
X6680Y87720D01*
X17930Y78470D02*
X195430Y78470D01*
X195430Y12970D01*
X125510Y12970D01*
X87850Y12970D02*
X17930Y12970D01*
X17930Y78470D01*
D11*
X244475Y340201D02*
X250825Y340201D01*
X250825Y348139D02*
X244475Y348139D01*
X102711Y111125D02*
X102711Y104775D01*
X110649Y104775D02*
X110649Y111125D01*
X130969Y111125D02*
X130969Y104775D01*
X123031Y104775D02*
X123031Y111125D01*
D16*
X589400Y135630D02*
X604400Y135630D01*
X604400Y166630D02*
X589400Y166630D01*
D10*
X94700Y107950D02*
X92200Y107950D01*
D12*
X92200Y105450D01*
X92200Y107950D02*
X92200Y110450D01*
X80200Y95450D02*
X72200Y95450D01*
X60200Y105450D02*
X60200Y110450D01*
X72200Y120450D02*
X80200Y120450D01*
D11*
X558316Y42164D02*
X574524Y42164D01*
X574524Y13716D02*
X558316Y13716D01*
X558316Y22716D02*
X558316Y33164D01*
X574524Y23664D02*
X574524Y22716D01*
X574524Y32216D02*
X574524Y33164D01*
X574524Y14664D02*
X574524Y13716D01*
X574524Y41216D02*
X574524Y42164D01*
X558316Y42164D02*
X558316Y41216D01*
X558316Y14664D02*
X558316Y13716D01*
X544957Y46653D02*
X544957Y53855D01*
X544957Y46653D02*
X546398Y45212D01*
X549279Y45212D01*
X550719Y46653D01*
X550719Y53855D01*
X554312Y46653D02*
X555753Y45212D01*
X558634Y45212D01*
X560074Y46653D01*
X560074Y52415D01*
X558634Y53855D01*
X555753Y53855D01*
X554312Y52415D01*
X554312Y50974D01*
X555753Y49534D01*
X560074Y49534D01*
X600551Y31115D02*
X600551Y24765D01*
X608489Y24765D02*
X608489Y31115D01*
D12*
X606556Y50170D02*
X605412Y51314D01*
X603124Y51314D01*
X601980Y50170D01*
X601980Y45594D01*
X603124Y44450D01*
X605412Y44450D01*
X606556Y45594D01*
X609464Y45594D02*
X610608Y44450D01*
X612896Y44450D01*
X614040Y45594D01*
X614040Y50170D01*
X612896Y51314D01*
X610608Y51314D01*
X609464Y50170D01*
X609464Y49026D01*
X610608Y47882D01*
X614040Y47882D01*
X616948Y45594D02*
X616948Y50170D01*
X618092Y51314D01*
X620380Y51314D01*
X621524Y50170D01*
X621524Y45594D01*
X620380Y44450D01*
X618092Y44450D01*
X616948Y45594D01*
X621524Y50170D01*
X624432Y49026D02*
X626720Y51314D01*
X626720Y44450D01*
X624432Y44450D02*
X629008Y44450D01*
D11*
X521811Y28575D02*
X521811Y22225D01*
X529749Y22225D02*
X529749Y28575D01*
D12*
X538102Y10674D02*
X539246Y9530D01*
X538102Y10674D02*
X535814Y10674D01*
X534670Y9530D01*
X534670Y4954D01*
X535814Y3810D01*
X538102Y3810D01*
X539246Y4954D01*
X542154Y4954D02*
X543298Y3810D01*
X545586Y3810D01*
X546730Y4954D01*
X546730Y9530D01*
X545586Y10674D01*
X543298Y10674D01*
X542154Y9530D01*
X542154Y8386D01*
X543298Y7242D01*
X546730Y7242D01*
X549638Y4954D02*
X549638Y9530D01*
X550782Y10674D01*
X553070Y10674D01*
X554214Y9530D01*
X554214Y4954D01*
X553070Y3810D01*
X550782Y3810D01*
X549638Y4954D01*
X554214Y9530D01*
X557122Y3810D02*
X561698Y3810D01*
X557122Y3810D02*
X561698Y8386D01*
X561698Y9530D01*
X560554Y10674D01*
X558266Y10674D01*
X557122Y9530D01*
D11*
X633889Y24765D02*
X633889Y31115D01*
X625951Y31115D02*
X625951Y24765D01*
D12*
X614680Y10674D02*
X614680Y3810D01*
X614680Y10674D02*
X619256Y10674D01*
X616968Y7242D02*
X614680Y7242D01*
X622164Y3810D02*
X622164Y10674D01*
X625596Y10674D01*
X626740Y9530D01*
X626740Y8386D01*
X625596Y7242D01*
X626740Y6098D01*
X626740Y4954D01*
X625596Y3810D01*
X622164Y3810D01*
X622164Y7242D02*
X625596Y7242D01*
X629648Y10674D02*
X634224Y10674D01*
X629648Y10674D02*
X629648Y7242D01*
X631936Y8386D01*
X633080Y8386D01*
X634224Y7242D01*
X634224Y4954D01*
X633080Y3810D01*
X630792Y3810D01*
X629648Y4954D01*
D11*
X473710Y16256D02*
X466090Y16256D01*
X466090Y29464D02*
X473710Y29464D01*
D12*
X458727Y10674D02*
X459871Y9530D01*
X458727Y10674D02*
X456439Y10674D01*
X455295Y9530D01*
X455295Y4954D01*
X456439Y3810D01*
X458727Y3810D01*
X459871Y4954D01*
X462779Y8386D02*
X465067Y10674D01*
X465067Y3810D01*
X462779Y3810D02*
X467355Y3810D01*
X470263Y8386D02*
X472551Y10674D01*
X472551Y3810D01*
X470263Y3810D02*
X474839Y3810D01*
X481179Y3810D02*
X481179Y10674D01*
X477747Y7242D01*
X482323Y7242D01*
D11*
X431800Y258286D02*
X425450Y258286D01*
X425450Y266224D02*
X431800Y266224D01*
D12*
X426720Y251339D02*
X426720Y244475D01*
X426720Y251339D02*
X430152Y251339D01*
X431296Y250195D01*
X431296Y247907D01*
X430152Y246763D01*
X426720Y246763D01*
X429008Y246763D02*
X431296Y244475D01*
X434204Y250195D02*
X435348Y251339D01*
X437636Y251339D01*
X438780Y250195D01*
X438780Y249051D01*
X437636Y247907D01*
X436492Y247907D01*
X437636Y247907D02*
X438780Y246763D01*
X438780Y245619D01*
X437636Y244475D01*
X435348Y244475D01*
X434204Y245619D01*
X441688Y250195D02*
X442832Y251339D01*
X445120Y251339D01*
X446264Y250195D01*
X446264Y249051D01*
X445120Y247907D01*
X443976Y247907D01*
X445120Y247907D02*
X446264Y246763D01*
X446264Y245619D01*
X445120Y244475D01*
X442832Y244475D01*
X441688Y245619D01*
D11*
X444500Y269875D02*
X416560Y269875D01*
X444500Y290195D02*
X444600Y290193D01*
X444699Y290187D01*
X444799Y290177D01*
X444897Y290164D01*
X444996Y290146D01*
X445093Y290125D01*
X445189Y290100D01*
X445285Y290071D01*
X445379Y290038D01*
X445472Y290002D01*
X445563Y289962D01*
X445653Y289918D01*
X445741Y289871D01*
X445827Y289821D01*
X445911Y289767D01*
X445993Y289710D01*
X446072Y289650D01*
X446150Y289586D01*
X446224Y289520D01*
X446296Y289451D01*
X446365Y289379D01*
X446431Y289305D01*
X446495Y289227D01*
X446555Y289148D01*
X446612Y289066D01*
X446666Y288982D01*
X446716Y288896D01*
X446763Y288808D01*
X446807Y288718D01*
X446847Y288627D01*
X446883Y288534D01*
X446916Y288440D01*
X446945Y288344D01*
X446970Y288248D01*
X446991Y288151D01*
X447009Y288052D01*
X447022Y287954D01*
X447032Y287854D01*
X447038Y287755D01*
X447040Y287655D01*
X416560Y290195D02*
X416460Y290193D01*
X416361Y290187D01*
X416261Y290177D01*
X416163Y290164D01*
X416064Y290146D01*
X415967Y290125D01*
X415871Y290100D01*
X415775Y290071D01*
X415681Y290038D01*
X415588Y290002D01*
X415497Y289962D01*
X415407Y289918D01*
X415319Y289871D01*
X415233Y289821D01*
X415149Y289767D01*
X415067Y289710D01*
X414988Y289650D01*
X414910Y289586D01*
X414836Y289520D01*
X414764Y289451D01*
X414695Y289379D01*
X414629Y289305D01*
X414565Y289227D01*
X414505Y289148D01*
X414448Y289066D01*
X414394Y288982D01*
X414344Y288896D01*
X414297Y288808D01*
X414253Y288718D01*
X414213Y288627D01*
X414177Y288534D01*
X414144Y288440D01*
X414115Y288344D01*
X414090Y288248D01*
X414069Y288151D01*
X414051Y288052D01*
X414038Y287954D01*
X414028Y287854D01*
X414022Y287755D01*
X414020Y287655D01*
X414020Y272415D02*
X414022Y272315D01*
X414028Y272216D01*
X414038Y272116D01*
X414051Y272018D01*
X414069Y271919D01*
X414090Y271822D01*
X414115Y271726D01*
X414144Y271630D01*
X414177Y271536D01*
X414213Y271443D01*
X414253Y271352D01*
X414297Y271262D01*
X414344Y271174D01*
X414394Y271088D01*
X414448Y271004D01*
X414505Y270922D01*
X414565Y270843D01*
X414629Y270765D01*
X414695Y270691D01*
X414764Y270619D01*
X414836Y270550D01*
X414910Y270484D01*
X414988Y270420D01*
X415067Y270360D01*
X415149Y270303D01*
X415233Y270249D01*
X415319Y270199D01*
X415407Y270152D01*
X415497Y270108D01*
X415588Y270068D01*
X415681Y270032D01*
X415775Y269999D01*
X415871Y269970D01*
X415967Y269945D01*
X416064Y269924D01*
X416163Y269906D01*
X416261Y269893D01*
X416361Y269883D01*
X416460Y269877D01*
X416560Y269875D01*
X444500Y269875D02*
X444600Y269877D01*
X444699Y269883D01*
X444799Y269893D01*
X444897Y269906D01*
X444996Y269924D01*
X445093Y269945D01*
X445189Y269970D01*
X445285Y269999D01*
X445379Y270032D01*
X445472Y270068D01*
X445563Y270108D01*
X445653Y270152D01*
X445741Y270199D01*
X445827Y270249D01*
X445911Y270303D01*
X445993Y270360D01*
X446072Y270420D01*
X446150Y270484D01*
X446224Y270550D01*
X446296Y270619D01*
X446365Y270691D01*
X446431Y270765D01*
X446495Y270843D01*
X446555Y270922D01*
X446612Y271004D01*
X446666Y271088D01*
X446716Y271174D01*
X446763Y271262D01*
X446807Y271352D01*
X446847Y271443D01*
X446883Y271536D01*
X446916Y271630D01*
X446945Y271726D01*
X446970Y271822D01*
X446991Y271919D01*
X447009Y272018D01*
X447022Y272116D01*
X447032Y272216D01*
X447038Y272315D01*
X447040Y272415D01*
X447040Y287655D01*
X414020Y287655D02*
X414020Y272415D01*
X416560Y290195D02*
X444500Y290195D01*
D12*
X411480Y271654D02*
X410336Y270510D01*
X411480Y271654D02*
X411480Y272798D01*
X410336Y273942D01*
X404616Y273942D01*
X404616Y272798D02*
X404616Y275086D01*
X405760Y277994D02*
X404616Y279138D01*
X404616Y281426D01*
X405760Y282570D01*
X406904Y282570D01*
X408048Y281426D01*
X408048Y280282D01*
X408048Y281426D02*
X409192Y282570D01*
X410336Y282570D01*
X411480Y281426D01*
X411480Y279138D01*
X410336Y277994D01*
X405760Y285478D02*
X404616Y286622D01*
X404616Y288910D01*
X405760Y290054D01*
X406904Y290054D01*
X408048Y288910D01*
X408048Y287766D01*
X408048Y288910D02*
X409192Y290054D01*
X410336Y290054D01*
X411480Y288910D01*
X411480Y286622D01*
X410336Y285478D01*
M02*
