M48
;GenerationSoftware,Autodesk,EAGLE,9.5.2*%
;CreationDate,2020-03-22T14:32:58Z*%
FMAT,2
ICI,OFF
METRIC,TZ,000.000
T6C0.400
T5C0.500
T4C0.700
T3C1.000
T2C2.400
T1C3.200
%
G90
M71
T1
X40894Y3048
T2
X31115Y18415
T3
X27686Y18415
X31115Y21590
X34290Y18415
X31115Y15240
X15748Y3302
X15748Y5842
X5588Y3302
X5588Y5842
X8128Y3302
X8128Y5842
X10668Y3302
X10668Y5842
X13208Y3302
X13208Y5842
T4
X29146Y20384
X29146Y16383
X33084Y16383
X33147Y20384
T5
X10668Y29210
X12065Y27813
X7620Y27940
X7620Y30480
X3937Y13970
X3556Y8890
X2032Y8890
X17653Y8890
X54229Y32004
X56134Y31369
X62992Y26924
X10668Y36957
X12065Y34163
X13462Y27813
X13462Y29210
X12065Y35560
X55118Y27432
X57658Y13716
X5080Y8890
X58928Y30734
X1905Y13462
X10668Y27813
X63500Y17145
X63500Y15240
X22860Y36449
X3810Y35560
X59055Y27432
X24130Y36449
X57912Y11176
X60960Y12065
X20066Y24828
X13208Y25146
X15748Y28702
X17526Y28702
X51816Y23876
X44704Y22987
X47244Y24574
X46672Y18034
X18796Y29718
X21082Y28956
X57658Y8128
X19939Y27813
X59563Y8128
X61468Y6096
X63500Y8128
X63500Y6096
X51054Y1844
X50292Y2606
X61468Y8128
X14478Y31242
X6350Y29210
X5080Y30480
X8890Y29210
X12065Y36957
X10668Y35560
X10668Y34163
X12065Y29210
X49530Y1844
T6
X60325Y17780
X59245Y4572
X33655Y26035
X37465Y22225
X19685Y4572
X53975Y3175
X26035Y5461
X33401Y8255
X39624Y14478
X42037Y19685
X33147Y28829
X22098Y21590
X26289Y30861
X36830Y33020
X28702Y33401
X24638Y18161
X50800Y15875
X40640Y11112
X45783Y32893
X22352Y27686
X21844Y14478
X27178Y25400
X19304Y19558
X37211Y29464
X31496Y5461
X17653Y14605
X23368Y28702
X24765Y30099
X23749Y23495
X20193Y20447
X21717Y9779
X24638Y6858
X36449Y25654
X8509Y18542
X12446Y14478
X14224Y10541
X40640Y26797
X40640Y29972
X32546Y30099
X49149Y11176
X54356Y14097
X53340Y22733
X28448Y4064
X46609Y35941
X34290Y33020
X54356Y13081
X35306Y26670
X19939Y2032
X13462Y16637
X54193Y20994
X56896Y19050
X18923Y5842
X15621Y11938
X5588Y13970
X14605Y17653
X7620Y13716
X56515Y17780
X25908Y12192
X10160Y22860
X5969Y25019
X3556Y27432
X48387Y29718
X6604Y8890
X35179Y4445
X37846Y12700
X34798Y9652
X42672Y12573
X40640Y21336
X37465Y36195
X24765Y889
X23495Y8255
X47371Y9906
X36703Y17272
X39370Y22479
X30480Y28829
X22606Y34671
X30988Y33782
X14478Y35560
X40513Y32893
X57785Y24384
X26924Y9525
M30